<?xml version="1.0" encoding="UTF-8" standalone="no"?>
<svg
   xmlns:dc="http://purl.org/dc/elements/1.1/"
   xmlns:cc="http://creativecommons.org/ns#"
   xmlns:rdf="http://www.w3.org/1999/02/22-rdf-syntax-ns#"
   xmlns:svg="http://www.w3.org/2000/svg"
   xmlns="http://www.w3.org/2000/svg"
   viewBox="0 0 744.09497 977.95251"
   height="977.95251"
   width="744.09497"
   xml:space="preserve"
   version="1.1"
   id="svg2"><metadata
     id="metadata8"><rdf:RDF><cc:Work
         rdf:about=""><dc:format>image/svg+xml</dc:format><dc:type
           rdf:resource="http://purl.org/dc/dcmitype/StillImage" /></cc:Work></rdf:RDF></metadata><defs
     id="defs6"><clipPath
       id="clipPath296"
       clipPathUnits="userSpaceOnUse"><path
         id="path298"
         d="m 0.059998,782.362 595.215002,0 0,-782.302 -595.215002,0 0,782.302 z" /></clipPath></defs><g
     transform="matrix(1.25,0,0,-1.25,0,977.9525)"
     id="g10"><g
       id="g12"><text
         id="text14"
         style="font-variant:normal;font-weight:normal;font-size:20.00009918px;font-family:AdvP444ED9;-inkscape-font-specification:AdvP444ED9;writing-mode:lr-tb;fill:#353d9c;fill-opacity:1;fill-rule:nonzero;stroke:none"
         transform="matrix(1,0,0,-1,50.4567,743.9809)"><tspan
           id="tspan16"
           y="0"
           x="0 5.2060261 15.632078 22.518112 29.404146 39.410198 55.454277 64.200317 72.946365 83.372414 92.118462 99.004494 115.04858 126.67063 136.67668 145.42273 154.16878 164.17482 168.98085 179.40689 186.29294 191.09895 201.10501 217.14908 225.89513 234.24117 241.12721 251.13326 258.01929 270.49136 286.73743 295.48349 311.52957 327.57565 336.32169 341.12772 345.93372 354.67978 370.66785 383.37393 392.11996 402.54602 412.55206 428.59814 437.34418">IntronLengthCoevolutionacrossMammalianGenomes</tspan></text>
<text
         id="text18"
         style="font-variant:normal;font-weight:normal;font-size:12.49989986px;font-family:AdvP42FAA2;-inkscape-font-specification:AdvP42FAA2;writing-mode:lr-tb;fill:#231f20;fill-opacity:1;fill-rule:nonzero;stroke:none"
         transform="matrix(1,0,0,-1,50.4567,718.5825)"><tspan
           id="tspan20"
           y="0"
           x="0 6.1124511 11.449908 15.612375 20.949833 28.174774 35.987213 41.327168 48.477112 53.814571 59.152027 65.651978">PeterA.Keane</tspan></text>
<text
         id="text22"
         style="font-variant:normal;font-weight:normal;font-size:9.37469959px;font-family:AdvP42FAA2;-inkscape-font-specification:AdvP42FAA2;writing-mode:lr-tb;fill:#231f20;fill-opacity:1;fill-rule:nonzero;stroke:none"
         transform="matrix(1,0,0,-0.88881778,121.4929,724.0817)"><tspan
           id="tspan24"
           y="0"
           x="0">1</tspan></text>
<text
         id="text26"
         style="font-variant:normal;font-weight:normal;font-size:12.49989986px;font-family:AdvP42FAA2;-inkscape-font-specification:AdvP42FAA2;writing-mode:lr-tb;fill:#231f20;fill-opacity:1;fill-rule:nonzero;stroke:none"
         transform="matrix(1,0,0,-1,128.9196,718.5825)"><tspan
           id="tspan28"
           y="0"
           x="0 5.3374572 11.837405 21.37233 28.659771 33.997227 38.159695 44.534645 49.872101 55.783302 61.120762 66.458221 72.708168 75.433144 80.895599 87.270554 92.608009">andCathalSeoighe*</tspan></text>
<text
         id="text30"
         style="font-variant:normal;font-weight:normal;font-size:9.37469959px;font-family:AdvP42FAA2;-inkscape-font-specification:AdvP42FAA2;writing-mode:lr-tb;fill:#231f20;fill-opacity:1;fill-rule:nonzero;stroke:none"
         transform="matrix(1,0,0,-0.88881778,225.9779,724.0817)"><tspan
           id="tspan32"
           y="0"
           x="0 1.6593219">,1</tspan></text>
<text
         id="text34"
         style="font-variant:normal;font-weight:normal;font-size:7.49989986px;font-family:AdvP42FAA2;-inkscape-font-specification:AdvP42FAA2;writing-mode:lr-tb;fill:#231f20;fill-opacity:1;fill-rule:nonzero;stroke:none"
         transform="matrix(1,0,0,-0.88881185,50.4567,710.3053)"><tspan
           id="tspan36"
           y="0"
           x="0">1</tspan></text>
<text
         id="text38"
         style="font-variant:normal;font-weight:normal;font-size:10.00010014px;font-family:AdvP42FAA2;-inkscape-font-specification:AdvP42FAA2;writing-mode:lr-tb;fill:#231f20;fill-opacity:1;fill-rule:nonzero;stroke:none"
         transform="matrix(1,0,0,-1,53.6882,705.8265)"><tspan
           id="tspan40"
           y="0"
           x="0 4.079041 8.0480804 12.957129 17.766178 22.575226 27.564276 32.373325 37.759377 45.89846 49.977501 53.116531 58.025581 62.104622 69.8237 73.90274 77.041771 79.030792 82.999832 86.238861 90.83091 94.90995 98.048981 102.12802 105.26705 107.25607 110.4951 113.63414 115.62315 119.59219 125.82825 129.9073 134.91635 142.85342 148.91949 153.92854 158.93759 160.92661 162.91563 166.99467 174.87476 183.03883 187.11787 190.2569 195.16595 199.19099 206.91006 210.98911 214.12814 216.11417 220.0802 223.31624 227.90828 234.37134 238.44739 241.58342 243.56944 248.37549 253.38153 257.45758 262.44662 268.85269 273.85873 275.84476 280.02081 284.09683 287.12286 290.35892 292.34491 295.48096 302.45401 307.21606 312.65912 314.87015 317.89618 321.97223 323.95825 328.03427 333.04034 337.94638 342.53842 348.77448 352.85052 354.83655 361.30261 365.37866 369.3447 373.93674 376.13275 379.15878 383.23483 385.22086 389.29691 394.30295">SchoolofMathematics,StatisticsandAppliedMathematics,NationalUniversityofIreland,Galway,Ireland</tspan><tspan
           id="tspan42"
           y="16.214163"
           x="-3.2310324">*</tspan></text>
<text
         id="text44"
         style="font-variant:normal;font-weight:normal;font-size:10.00010014px;font-family:AdvP449CFA;-inkscape-font-specification:AdvP449CFA;writing-mode:lr-tb;fill:#231f20;fill-opacity:1;fill-rule:nonzero;stroke:none"
         transform="matrix(1,0,0,-1,54.029203,689.61234)"><tspan
           id="tspan46"
           y="0"
           x="0 5.9300594 11.03011 14.780148 18.530186 23.000231 26.640266 32.05032 37.150372 42.560425 47.970478 50.570507 55.98056 63.15963 67.839676 73.249733 76.789764 82.199821 87.299873 91.049911">Correspondingauthor:</tspan></text>
<text
         id="text48"
         style="font-variant:normal;font-weight:normal;font-size:10.00010014px;font-family:AdvP42FAA2;-inkscape-font-specification:AdvP42FAA2;writing-mode:lr-tb;fill:#231f20;fill-opacity:1;fill-rule:nonzero;stroke:none"
         transform="matrix(1,0,0,-1,149.95416,689.61234)"><tspan
           id="tspan50"
           y="0"
           x="0 4.4700446 7.4900751 15.400154 19.670197 21.850218 24.030241 28.348284 34.178341 38.448383 41.778419 46.878468 51.14851 53.328533 55.098553 59.368595 63.638638 68.638687 70.81871 75.188751 80.288803 84.558846 91.948921 97.148972 102.24902 104.42905 108.79909 113.22313 115.40315 122.06322 126.33326 130.4933 132.26332 134.44334">E-mail:Cathal.Seoighe@nuigalway.ie</tspan></text>
<text
         id="text52"
         style="font-variant:normal;font-weight:normal;font-size:10.00010014px;font-family:AdvP449CFA;-inkscape-font-specification:AdvP449CFA;writing-mode:lr-tb;fill:#231f20;fill-opacity:1;fill-rule:nonzero;stroke:none"
         transform="matrix(1,0,0,-1,50.458168,676.0622)"><tspan
           id="tspan54"
           y="0"
           x="0 6.1620617 9.6140957 13.01613 17.948179 22.03022 24.442244 28.93429 32.286324 39.543396 43.85244 49.07449 51.486515 54.838547 59.750599 63.265633">Associateeditor:</tspan></text>
<text
         id="text56"
         style="font-variant:normal;font-weight:normal;font-size:10.00010014px;font-family:AdvP42FAA2;-inkscape-font-specification:AdvP42FAA2;writing-mode:lr-tb;fill:#231f20;fill-opacity:1;fill-rule:nonzero;stroke:none"
         transform="matrix(1,0,0,-1,118.82985,676.0622)"><tspan
           id="tspan58"
           y="0"
           x="0 2.1980219 7.0060701 11.914119 19.964199 24.662247 28.687286 31.715317 34.95335 38.921391">JohnParsch</tspan></text>
<text
         id="text60"
         style="font-variant:normal;font-weight:normal;font-size:13px;font-family:AdvP449CFA;-inkscape-font-specification:AdvP449CFA;writing-mode:lr-tb;fill:#353d9c;fill-opacity:1;fill-rule:nonzero;stroke:none"
         transform="matrix(1,0,0,-1,50.4567,647.9999)"><tspan
           id="tspan62"
           y="0"
           x="0 8.2550001 15.015 19.747 24.349001 29.224001 35.307999 40.859001">Abstract</tspan></text>
<text
         id="text64"
         style="font-variant:normal;font-weight:normal;font-size:10.50010014px;font-family:AdvP449CFA;-inkscape-font-specification:AdvP449CFA;writing-mode:lr-tb;fill:#231f20;fill-opacity:1;fill-rule:nonzero;stroke:none"
         transform="matrix(1,0,0,-1,50.4567,630.0849)"><tspan
           id="tspan66"
           y="0"
           x="0 6.4754119 9.0132856 12.472019 17.970921 23.13382 28.576023 33.192917 42.717556 46.242439 51.684643 56.186035 64.746765 70.188965 79.430107 84.872307 90.031006 97.627831 101.87932 107.04222 112.48442 116.00931 119.75469 122.29256 127.50797 132.99637 136.52126 145.08199 150.58089 153.07571 156.81795 161.31934 165.61073 169.06946 171.62099 180.18172 183.69714 192.88159 196.39702 201.88542 210.44615 215.88835 219.63058 224.79349 228.31837 232.81976 237.98267 246.31659 250.81799 257.05399 259.60553 265.09393 268.55264 272.29803 277.46094 282.94934 290.60287 293.46625 297.15179 301.65317 306.98196 312.47037 316.97177 322.46017 325.98505 328.47989 337.04062 341.332 346.4949 351.98331 355.50818 360.23007 362.72491 372.30624 376.04742 380.54883 385.16571 390.65411 393.14896 397.87085 401.39572 406.55862 410.30402 418.86475 423.36612 425.90399 430.4054 438.68262 443.18402 448.62622 452.15109 459.86133 464.58322 470.02542 479.60678 483.85825 488.58014">Althoughtheydonotcontributedirectlytotheproteome,intronsfrequentlycontainregulatoryelementsandcan</tspan><tspan
           id="tspan68"
           y="11.961714"
           x="0 4.4677925 9.0027857 12.494069 17.029062 22.483864 31.668303 35.159584 40.614388 48.778214 54.277119 57.988903 63.118202 66.609482 71.077278 73.628799 82.756538 87.064728 92.223427 97.67823 100.22975 105.68456 113.96178 119.46069 124.61938 128.11067 132.57846 138.03326 141.52455 144.07607 148.78117 154.96048 160.11917 166.63869 170.15411 175.65303 183.81685 188.40015 192.86794 198.36684 203.52554 211.82587 219.9897 223.48097 228.97987 232.69167 237.82097 243.31987 247.91156 257.09601 261.86514 264.38623 267.89429 272.37891 276.10748 281.57907 286.28418 289.79227 292.31332 296.91342 305.07727 308.69034 314.16196 316.68301 319.2041 323.47867 325.99976 331.47134 336.07144 341.96725 346.67236 351.81845 359.24518 362.85825 368.00436 376.32147 384.48532 389.08542 393.57001 399.0416 403.52618 407.13928 413.0351 416.54315 422.01477 430.17859 434.48679 439.63287 445.10449 448.61258 452.34116 454.86224 460.11334 465.58493 469.09302 471.61411 476.76019 485.88794 491.04663">extendtheproteincodingpotentialofthegenomethroughalternativesplicing.Forsomegenes,thecontributionof</tspan><tspan
           id="tspan70"
           y="23.980127"
           x="0 2.5515244 7.9937263 11.493409 15.213594 20.351294 25.814495 32.050507 35.565937 43.332863 46.848297 52.347198 59.433716 62.933399 65.446075 73.754799 80.841316 84.561508 89.037697 94.395897 99.894798 102.40748 106.12766 110.60385 118.71098 121.54916 126.68686 133.03627 136.5517 140.27188 145.03368 150.49689 154.10156 158.36775 162.08794 164.63947 170.08167 173.58136 176.13287 181.27057 189.321 193.6292 198.33429 206.38472 211.14651 213.65918 217.26387 225.03079 230.30289 237.3894 240.22444 245.72334 251.16554 255.47374 258.98917 261.50183 266.63953 272.13843 276.84354 279.3562 281.90775 288.99426 292.62308 295.17462 299.7663 305.22949 307.78104 313.35974 317.62592 322.32263 327.82153 331.3212 336.08301 345.09735 352.18387 357.64706 362.40884 367.00055 374.08707 379.58597 383.27151 387.80649 392.39819 394.91086 400.04855 405.54745 409.1763 411.68896 418.83218 422.43686 427.93576 433.07349 440.0697 448.17682 451.69226 457.15546 461.91724 468.03986 470.53467 476.03357 479.54901 483.2692 488.40689">intronstothetimerequiredfortranscriptioncanalsobefunctionallysignifcant.Wehavepreviouslyshownthatintron</tspan><tspan
           id="tspan72"
           y="35.998543"
           x="0 2.5357742 7.0350671 12.477269 17.125664 20.648447 28.585472 31.121246 39.058273 43.673065 48.172359 53.658661 58.157955 64.280563 68.985657 72.613441 76.185577 81.346375 85.635666 88.130486 92.835587 96.358368 100.85766 108.79469 115.7678 118.30357 121.82636 129.76338 135.26228 139.76158 144.37637 148.87567 151.3705 156.5313 161.9735 170.30533 174.80461 180.29092 183.81371 188.53349 193.52209 199.00839 203.7282 207.25098 210.77376 215.27306 219.01634 224.45854 226.99431 232.48062 239.56714 242.06195 248.18457 253.30441 256.16043 259.67798 264.17203 272.10904 277.59009 280.12061 284.73016 290.17236 292.70288 299.67599 303.96005 309.1156 314.59665 318.21918 322.71323 326.45126 331.06079 335.55484 341.03589 345.6843 348.43533 356.37234 360.9819 365.47592 370.95697 375.45102 379.18906 383.90359 386.43414 391.08252 394.70505 399.1991 402.71664 408.83923 413.99478 419.32361 423.93314 428.42719 433.90823 438.40228 444.52487 448.04031 453.48251 458.18762 464.19681 467.93802 472.43204 477.80811 483.25031 485.80182 489.53986">lengthingenesassociatedwithdevelopmentalpatterningisoftenhighlyconserved.Ingeneral,setsofgenesthatrequire</tspan><tspan
           id="tspan74"
           y="47.960258"
           x="0 5.4989023 9.1844378 13.719431 17.970921 20.522446 24.09458 30.727493 35.035683 40.172333 45.308983 49.028118 54.52702 57.038643 62.537544 67.233192 70.731827 73.243446 78.380096 85.976921 88.528442 96.125267 99.640701 105.10285 111.73576 115.2344 117.78592 126.0936 128.64513 134.14403 140.83365 145.97029 150.95889 154.45752 159.91968 164.45467 166.94949 172.84529 177.32043 181.79558 187.29448 191.01363 195.54861 199.15225 202.75587 205.3074 210.46611 218.06293 226.34015 231.10194 237.67816 242.91982 249.55272 253.15636 257.6315 263.09366 266.6973 269.24881 272.76425 275.27588 279.92426 286.50049 290.0159 297.32922 301.58179 307.08069 311.78577 317.24792 321.83856 326.37357 332.09927 334.65079 342.24762 345.74625 349.46539 354.22717 359.66937 363.27301 367.53815 371.25729 373.80881 379.27097 384.93997 387.4516 391.98657 397.44873 402.03937 405.53802 411.03693 415.34509 423.96252 429.42468 433.14383 437.61896 443.11786 445.62949 449.93768 453.43631 455.94794 461.08459 468.68143 473.81805 478.80667 482.3053 487.76746 490.31897">precisecoordinationinthetimingoftheirexpressionmaybesensitivetochangesintranscriptlength.Apredictionofthis</tspan><tspan
           id="tspan76"
           y="59.978672"
           x="0 5.4873524 9.9876947 15.429897 20.588596 24.112431 29.599781 34.100124 37.728958 40.223782 45.949486 48.486313 54.212017 57.735851 63.178051 67.898895 73.5112 78.011543 82.627388 87.789238 90.284058 95.771416 99.295242 101.79007 106.94877 112.43612 117.15697 120.9013 127.47752 131.76785 137.2552 141.97606 147.46341 152.07925 156.57959 162.3053 164.85683 172.39694 174.94847 180.43582 183.89455 187.63889 192.80074 200.39755 202.89238 207.39273 212.83493 217.45078 220.97461 226.46196 230.77014 237.74327 243.15607 247.64276 255.23958 258.74976 264.22348 268.71014 275.34308 280.49127 284.76797 289.04465 294.51834 298.24905 302.55722 310.87646 315.58365 322.21658 327.48868 334.06488 338.31741 343.46561 347.19632 350.927 355.4137 357.93686 362.69867 366.15738 370.69238 378.23251 383.48569 387.97238 391.48257 398.48929 402.97598 407.46268 415.05951 418.67468 423.16138 426.67157 432.39728 437.54547 442.47736 446.75406 451.90225 457.05045 460.78113 466.25485 468.77802 474.25171 478.95892 482.46909 486.95578 489.47897">hypothesisisthatevolutionarychangesinintronlength,whentheyoccur,maybecorrelatedbetweensetsofcoordinately</tspan><tspan
           id="tspan78"
           y="71.997086"
           x="0 4.4866929 9.0216856 14.495388 18.226074 22.712767 26.327951 29.943134 34.429829 44.124569 48.716263 53.202957 58.676659 63.163353 66.778534 73.184647 78.853653 88.208191 91.723625 96.258614 99.83075 107.59767 111.11311 116.58681 119.10999 126.93361 132.37581 136.9108 142.35301 147.50121 151.01138 156.48509 161.02008 164.63527 167.15845 170.77362 177.17973 184.18645 192.86058 197.56778 203.04149 207.74867 210.27185 214.80684 218.83258 223.31927 233.01402 235.53719 241.01089 244.52107 248.25807 253.42726 263.12201 265.61682 270.15182 275.59402 280.18573 283.71689 293.41165 297.66315 302.82184 307.32953 311.95273 317.05472 319.60623 325.10095 328.55969 331.10385 336.27304 345.9678 348.46262 358.15735 362.86246 365.40662 367.90146 372.52466 377.96686 386.30707 390.81476 396.30948 399.76822 407.64853 410.48355 414.23526 419.33725 431.86597 437.36487 439.90903 445.35123 454.08206 458.56036 464.00256 467.51801 473.0127 477.52039 481.27209 483.76691 488.49512">expressedgenes.Totestthishypothesis,weanalyzedintronlengthcoevolutioninalignmentsfromnineeutherian</tspan><tspan
           id="tspan80"
           y="83.958801"
           x="0 8.3349791 13.057924 21.335154 29.669083 34.392029 36.93095 40.561886 45.266979 52.614952 57.232895 61.735336 65.420876 70.143822 72.638641 75.177567 79.88266 84.500603 89.003044 94.4925 98.994942 105.17426 108.68968 114.13189 118.83698 124.90289 130.11829 134.62073 137.11555 142.27951 147.76895 154.85547 158.37091 166.08113 169.59656 175.03877 182.06859 185.69952 190.42247 198.75745 205.73056 211.22002 214.96645 220.06845 223.58388 228.08632 230.58115 238.57487 242.88306 248.04701 256.32425 261.81369 264.3085 268.81097 275.78409 280.94803 287.18402 290.70996 296.19943 300.92236 306.98828 311.71121 315.39676 322.42657 326.73477 331.83676 336.37177 340.87421 346.31641 350.06284 354.56528 358.1962 361.82715 366.32959 374.38 381.35312 385.83142 389.57785 396.60767 400.23862 402.73343 407.35138 412.84082 415.37976 420.93536 425.22781 429.95074 435.39294 438.90839 441.4473 448.47711 456.75436 461.91306 465.65948 472.6326 475.17154 477.71045 482.54889 487.05133 489.59027">mammals.Overall,genesthatbelongtothesameproteincomplexorthatarecoexpressedweresignifcantlymorelikely</tspan><tspan
           id="tspan82"
           y="95.977211"
           x="0 3.5227835 11.459809 15.087594 20.529795 25.690594 35.498737 39.998032 44.612823 47.148598 52.590801 57.090096 62.532295 66.821587 74.078209 79.239006 84.851311 87.387085 92.829285 96.352066 100.09535 105.25615 113.53338 116.02821 120.5065 125.9928 130.60759 134.13037 142.40761 146.6969 151.8577 156.35699 160.97179 166.13258 168.66835 174.11057 177.62599 180.16176 185.32257 193.54309 197.05853 202.54483 207.26462 215.54185 223.81908 228.53888 232.06166 236.35095 241.79315 246.29245 251.77875 256.76733 260.50958 265.22937 270.67157 276.15787 281.31866 289.59592 292.14743 299.40405 303.0329 307.75269 316.0845 321.5708 324.06564 328.56494 336.84216 341.45694 345.95624 351.44254 355.94183 359.56961 364.55823 367.31448 372.75671 378.24301 380.73782 385.35263 387.8884 393.37469 398.81689 403.53668 406.07248 408.56729 413.10229 418.09088 423.53308 427.27637 432.43716 435.95996 440.45926 442.99503 451.21555 455.52374 460.62573 468.95966 474.44595 476.9408 481.44009 485.93939 490.43866">toshowevidenceofintronlengthcoevolutionthanmatched,randomlysampledgenes.Individually,proteincomplexes</tspan><tspan
           id="tspan84"
           y="107.99563"
           x="0 2.523174 7.9968762 12.59907 17.747269 20.270443 24.872637 29.359329 37.012852 39.536026 47.189548 50.699734 56.173435 62.806347 67.11454 71.601234 74.124405 78.772797 83.080994 87.56768 91.844376 94.367546 101.00047 104.61565 110.08935 115.23755 122.24426 126.73096 134.32777 137.83797 143.31166 149.94458 153.57341 157.0836 160.81429 165.96248 171.43619 176.03838 180.52507 184.14026 189.80927 194.29594 198.94435 201.46751 206.94122 211.42792 216.90161 221.1783 227.81122 232.95941 237.94801 242.2247 247.35086 251.8533 256.47125 261.63519 264.13 269.61948 273.14542 275.64023 280.79892 288.45245 293.55444 298.59973 301.09457 306.58401 310.10995 313.85638 318.95837 326.61191 329.10672 333.60919 339.05139 343.66931 347.19525 352.68472 358.4671 363.19006 368.61755 376.27109 380.52258 383.04785 388.52365 392.14093 395.65323 400.142 403.87479 409.6572 414.81589 419.8045 424.05704 429.20734 433.69614 438.23111 443.67334 447.4061 451.8949 455.51218 459.12949 463.61826 471.27179 475.86349 480.35226 485.82806 490.31686">involvedinthecellcycleshowedthestrongestevidenceofcoevolutionofintronlengthsandclustersofcoexpressedgenes</tspan><tspan
           id="tspan86"
           y="119.95734"
           x="-0 4.4971929 9.9813948 13.722581 16.217405 20.504595 25.946796 30.443991 39.401627 42.260803 47.419502 54.619419 58.870911 63.368103 65.86293 71.872131 76.123627 80.620819 84.908012 87.441681 95.378708 99.991402 104.48859 109.97279 114.46999 121.55651 126.2616 128.79527 132.42096 140.98169 144.61053 150.09473 155.25343 162.22655 166.70483 175.66248 179.29131 181.78613 186.43452 191.87672 194.42825 199.98386 204.29205 209.00974 214.45193 221.42506 225.96005 230.57274 233.06757 238.55177 243.04897 248.53317 252.82036 260.75739 265.91608 272.2655 274.76031 280.24451 283.7652 287.50638 292.6084 301.56601 304.11755 308.61475 314.05695 318.66965 322.12836 331.086 335.3942 340.49619 345.03119 349.64389 354.80258 357.29739 362.7963 366.31699 368.8118 373.97052 379.45471 385.06702 392.43704 397.87924 405.07916 408.82034 413.31754 416.94321 422.42743 424.92224 428.43768 435.5242 439.26642 443.76364 448.37631 452.8735 457.59122 463.5437 471.70755 477.19174 482.35043 486.96313 491.46033">enrichedforcellcyclegenesalsoshowedsignifcantevidenceofintronlengthcoevolution.Ourresultsrevealanovel</tspan><tspan
           id="tspan88"
           y="131.97575"
           x="-0 4.7061448 8.3202791 13.792932 18.278574 22.554214 28.166519 33.313667 38.302265 42.903408 47.38905 52.861702 59.494617 63.770256 68.917404 73.403046 78.004196 83.151344 85.67347 91.146118 94.655251 97.177376 102.32452 109.92135 114.62644 120.09909 127.69592 133.16856 136.89821 142.04535 146.6465 149.16862 154.64127 161.27419 168.07719 176.39539 180.88103 185.58717 191.05981 196.78552 200.30096 207.55757 210.1091 215.58176 220.11674 225.5894 229.09853 231.62065 234.46828 241.1012 245.7076 250.19533 255.67009 260.15784 263.77405 268.08224 273.52444 277.2562 282.40543 285.91669 290.40442 292.92865 300.52545 304.80319 309.95245 318.27274 323.7475 326.2717 330.75946 335.24719 339.73492 345.51733 350.22559 355.70035 363.29715 368.56927 371.09348 376.24274 378.76697 383.9162 388.51944 391.04367 395.32141 400.02966 404.67804 410.12027 413.85199 419.00125 423.27899 427.81396 431.38611 435.00235 439.53732 445.26303 448.77847 454.25323 458.96146 464.63046 472.90771 477.61594 484.24887 489.50311">aspectofgenecoevolutionandprovideameanstoidentifygenes,proteincomplexesandbiologicalprocessesthatmaybe</tspan><tspan
           id="tspan90"
           y="143.99417"
           x="-0 5.4873524 10.208198 13.952533 17.411266 19.94809 24.199581 29.686934 32.223759 36.944603 40.630138 43.166962 50.820484 54.449318 58.949661 64.437012 68.009148 70.545975 74.069809 76.564629 81.21302 88.809845 92.325279 100.65921 104.9107 110.39805 115.1189 120.5611 125.2095 129.70984 136.45615 138.99298 147.61041 151.13425 154.87857 159.59943 165.04163 168.67046 172.9608 176.64633 179.19786 184.64006 188.15549 190.69232 195.85417 201.29637 206.00146 211.72717 217.16937 221.66971 227.15706 231.87791 240.21078 242.70561 247.01381 250.64264">particularlysensitivetochangesintranscriptionaldynamics.</tspan></text>
<text
         id="text92"
         style="font-variant:normal;font-weight:normal;font-size:10.50010014px;font-family:AdvP46AE7F;-inkscape-font-specification:AdvP46AE7F;writing-mode:lr-tb;fill:#231f20;fill-opacity:1;fill-rule:nonzero;stroke:none"
         transform="matrix(1,0,0,-1,50.4567,470.10328)"><tspan
           id="tspan94"
           y="0"
           x="0 6.1215582 10.4896 17.802919 25.016489 30.151037 33.973072 39.433125 43.150162">Keywords:</tspan></text>
<text
         id="text96"
         style="font-variant:normal;font-weight:normal;font-size:10.50010014px;font-family:AdvP449CFA;-inkscape-font-specification:AdvP449CFA;writing-mode:lr-tb;fill:#231f20;fill-opacity:1;fill-rule:nonzero;stroke:none"
         transform="matrix(1,0,0,-1,98.475757,470.10328)"><tspan
           id="tspan98"
           y="0"
           x="0 4.4835429 9.8385935 14.532139 19.341185 24.696236 27.426262 33.106815 36.823853 39.553875 44.908928 50.589481 55.563377 58.293404 63.973961 67.690994 71.628532 76.983582 82.664139 86.486176 91.509422 95.226456 99.163994 104.07804 109.7586 113.58064 118.06417 122.00171 124.73174 130.41229 134.03168 136.7617 142.11676 147.7973 152.85521 157.33875 162.6938 167.38734 172.08089 177.76144 181.69897 186.39253 190.21457 193.961 196.69102 202.04608 207.72662">coevolution,introns,transcription,coexpression.</tspan></text>
<text
         id="text100"
         style="font-variant:normal;font-weight:normal;font-size:13px;font-family:AdvP449CFA;-inkscape-font-specification:AdvP449CFA;writing-mode:lr-tb;fill:#353d9c;fill-opacity:1;fill-rule:nonzero;stroke:none"
         transform="matrix(1,0,0,-1,50.4567,428.5416)"><tspan
           id="tspan102"
           y="0"
           x="0 3.6530001 10.686 15.288 20.163 26.792999 33.826 40.859001 46.41 51.012001 54.391998 61.021999">Introduction</tspan></text>
<text
         id="text104"
         style="font-variant:normal;font-weight:normal;font-size:10.50010014px;font-family:AdvP42FAA2;-inkscape-font-specification:AdvP42FAA2;writing-mode:lr-tb;fill:#231f20;fill-opacity:1;fill-rule:nonzero;stroke:none"
         transform="matrix(1,0,0,-1,50.4567,412.6109)"><tspan
           id="tspan106"
           y="0"
           x="0 5.470552 10.615602 17.872221 22.860817 26.092749 28.190668 32.56921 34.648232 39.898281 44.489975 49.740025 52.911053 57.184593 61.563137 65.836678 67.915695 72.18924 77.439285 81.597328 85.870865 90.462563 94.770752 100.02081 108.12793 110.64796 115.793 121.04305 125.2011 128.48763 130.56665 135.60669 143.82722 148.86726 154.30946 156.38849 161.63853 164.92506 168.0961 173.13615 178.3862 184.67891 186.77682 194.99736 199.24884 204.39389 208.87744 213.15099 216.3829 220.54095 225.58099 228.86752 230.94655">Theorigin,prevalence,andfunctionofintronsineukaryotic</tspan><tspan
           id="tspan108"
           y="12.018414"
           x="0 4.3753915 8.6835823 13.930483 18.967381 27.059807 31.367998 37.263805 42.422504 46.692894 51.068287 57.8713 59.969223 65.006119 70.253021 77.169434 82.214729 86.485123 90.793312 98.50354 105.30656 108.69494 113.83684 118.87373 120.9496 125.21999 129.41478 135.19719 140.24249 145.23108 149.65268 152.82056 157.09094 161.39914 167.18155 169.25742 174.50432 177.78769 182.05809 185.22597 189.53415 192.92253 198.70494 200.78081 208.54773 216.64017 221.67706 223.75293 228.06113 232.21602">genomeshavelongbeenasubjectofgreatinterestinmolec-</tspan><tspan
           id="tspan110"
           y="24.036829"
           x="0 5.155549 7.245069 11.52911 17.538317 21.822357 26.211399 31.261948 33.351467 38.507015 41.804047 43.893566 48.944115 54.204666 58.626259 64.989319 67.078842 70.37587 75.531418 80.58197 85.683968 90.073006 98.010033 101.30707 105.4756 110.73615 112.82568 116.99422 121.27825 123.36777 125.4573 132.4304 135.72745 140.82944 145.11348 152.08659 157.1886 165.06892 170.28432 175.32962 181.45222 185.59032 190.64087 195.90141 199.19844 202.37997 204.4695 209.52005 214.6756 217.97263 225.00244 230.16115 232.25066">ularevolution.Althoughtypicallytheydonotcontributedi-</tspan><tspan
           id="tspan112"
           y="35.998543"
           x="0 3.1762803 7.455071 11.618361 14.910142 16.994411 23.684025 26.975807 34.572628 37.86441 43.014709 49.817726 55.089825 58.266106 63.311401 66.603188 70.881973 72.966248 80.789871 84.953156 89.998459 95.148758 97.233025 102.48833 109.34804 112.74483 117.02361 122.17391 127.32421 131.603 136.85831 141.02159 145.30038 151.25288 156.29819 161.34349 165.70837 169.98717 175.24246 179.52126 182.91805 187.11284 189.15405 194.40935 197.70113 200.87741 205.92271 211.17801 217.07382 222.22412 226.50291 230.8867">rectlytotheproteincodingsequencesofgenes,intronshave</tspan><tspan
           id="tspan114"
           y="48.016956"
           x="0 5.0368981 9.3072882 13.615479 24.897837 28.286219 33.42812 38.465015 45.24493 56.527287 59.815918 70.871475 76.143578 78.219444 82.489838 92.694885 96.096916 100.36731 104.7427 109.05089 112.22612 116.49651 124.60364 126.6795 134.77193 140.01883 145.05573 148.22362 151.50699 155.77739 161.02428 170.32213 172.87364 178.01555 183.26245 187.45723 190.74586 192.82173 197.85863 203.10553 207.41373 215.52086 218.69608 223.73299 225.80885 230.07924 233.46762">beenshowntoplayseveralimportantfunctionalroles.</tspan><tspan
           id="tspan116"
           y="60.035374"
           x="0 2.3121221 7.5747724 10.873903 14.057534 19.110182 24.325583 32.716213 35.211037 38.394665 42.680805 47.838455 52.996105 57.282246 62.544895 65.844025 67.935646 77.006683 81.177322 86.229973 91.492622 94.791756 99.077896 101.16951 111.37456 114.54979 118.83593 123.22707 128.38472 130.47635 134.76248 138.06161 143.11426 146.2979 155.42563 159.67712 161.76874 166.05489 174.1053 178.4135 183.67615 186.97528 195.3092 199.5607 204.82335 214.91499 219.20114 221.29276 223.38438 228.37297">Intronsfrequentlycontainregulatoryelementsandallow</tspan><tspan
           id="tspan118"
           y="71.997086"
           x="0 2.529474 7.5789723 13.58818 16.933512 22.035509 29.178728 34.438229 37.61871 42.668205 46.835697 51.118687 54.519669 60.812378 65.857674 71.243179 75.494667 77.583138 80.87912 85.162109 88.34259 93.602089 97.885078 101.18106 103.26953 107.65752 114.85744 118.25842 123.47382 125.56229 127.65076 131.81825 133.85948 139.13158 143.51956 148.05457 152.33755 156.62054 161.88004 166.16302 171.42253 176.57703 178.6655 183.88091 191.19421 194.48285 199.58485 206.78477 212.00017 215.1754 220.2249 223.52087 227.80386 229.89233">fortheprocessofalternativesplicing,expandingtheprotein</tspan><tspan
           id="tspan120"
           y="84.015503"
           x="0 4.1947899 9.1833878 14.329487 16.409555 21.660656 29.030676 33.189766 37.497955 42.749058 47.057247 51.216339 53.296406 56.583988 63.727207 68.768303 74.323906 77.611488 82.757591 90.014206 94.379097 98.653687 103.90479 108.94588 117.04251 121.31711 125.9655 130.2401 135.4912 143.65501 148.01991 150.09998 154.47957 156.55965 161.81075 169.18076 172.35599 174.43607 177.82864 185.08527 188.3739 196.42432 200.67581 205.82191 210.968 213.04808 216.33566 218.41573 223.45683 228.70793 232.98251">codingcapacityofthegenome,andgivingrisetoadditional</tspan><tspan
           id="tspan122"
           y="96.033913"
           x="0 8.0882273 13.120925 18.258623 22.524815 30.915445 35.960743 43.500866 47.865757 52.131947 57.374645 66.672485 69.847717 74.113907 78.5355 83.673195 85.744865 90.053055 93.34169 95.413361 100.44606 110.7078">modesofgeneregulation(</tspan><tspan
           id="tspan124"
           y="96.033913"
           x="113.89564 119.79984 124.93754 129.97025 133.20113 137.46732 146.8208 151.08699 156.32968 166.47699 172.37173 176.63794 179.80161 187.88985 192.15604 199.2982 203.88989 208.48158 213.07327">ChorevandCarmel2012</tspan><tspan
           id="tspan126"
           y="96.033913"
           x="217.75737 220.91475 227.60437 229.89024">).In</tspan><tspan
           id="tspan128"
           y="107.99563"
           x="0 8.1008272 12.379618 20.480446 28.581272 32.860062 34.944332 38.341114 42.026649 44.067871 49.32317 52.614952 55.791233 60.836529 66.091827 71.477333 75.640617 80.685921 88.786743 94.042046 97.218323 99.302597 102.69938 108.99209 114.14239 121.39901 124.69079 131.72061 136.32491 140.9292 150.05693 155.10223 159.63722 162.929 166.10529 170.38408 175.63937 179.03615 183.19945 186.43138 188.4726 193.5179 197.79668 204.9399 210.21201 213.38828 215.47255 223.57338 227.85217 231.02846">mammals,intronscompriseupto95%oftranscribedprimary</tspan><tspan
           id="tspan130"
           y="120.01404"
           x="0 5.2553 8.4315805 13.476878 16.76866 21.047451 23.13172 28.38702 31.353298 35.51659 40.561886 45.662834 47.759705 53.015003 59.987072 63.383854 67.662643 72.812943 77.963242 82.242035 87.49733 91.660622 95.939415 101.94757">protein-codingsequences(</tspan><tspan
           id="tspan132"
           y="120.01404"
           x="105.16585 113.66988 117.97807 121.28455 124.59103 126.69001 130.82809 137.91461 142.2081 147.42351 155.19043 161.76665 166.01813 170.38303 174.67651 182.50014 187.11913 191.73813 196.35712">MattickandGagen2001</tspan><tspan
           id="tspan134"
           y="120.01404"
           x="200.92046 204.09569 208.34718 210.4304 218.53018 223.78442 228.82867 232.22441">),impos-</tspan><tspan
           id="tspan136"
           y="132.03246"
           x="0.00105001 2.08952 7.34902 14.152035 20.89835 24.299332 26.340551 30.728542 35.943943 38.032413 40.561886 42.650356 46.817844 51.100838 56.316235 62.09864 66.236732 71.286232 74.68721 80.412918 82.510834 90.221062 93.509689 97.792679 100.97316 109.07819 114.9173 119.96679 124.95539 128.25137 133.40587 140.09549 144.40367 149.61908 153.92726 157.10774 161.49574 168.12865 171.30388 175.58687 180.74138 185.89587 187.98434 191.16483 195.44781 203.04463 205.59616 210.64566 216.25797 219.55394 222.73442 227.01741 232.27692">ingasignificantcostintermsoftheenergyrequiredfortran-</tspan><tspan
           id="tspan138"
           y="143.99417"
           x="0.00105001 3.4072824 7.5800223 10.765753 12.859472 18.074873 21.363504 23.457224 28.511972 40.303585 44.611774 49.876526 61.554737 63.648457 75.440071 78.741302 83.029541 86.215271 94.325546 104.24709 109.29239 118.36343 121.65206 126.81181 137.64056 142.9053 147.96005 151.26129 155.54953 160.81429 164.11551 166.20923 170.49747 179.1716 181.66643 186.72118 196.47263 200.76086 203.94659 207.13232 212.12093 217.38567 221.6739 226.66251 231.82121">scriptionandintermsofthepotentialforerroneous</tspan><tspan
           id="tspan140"
           y="156.01259"
           x="0.00105001 3.2980814 6.4796119 10.763653 16.024202 19.426235 23.594774 26.776304 28.865826 34.126373 37.423405 44.113022 47.28825 51.572292 54.974323 60.129871 62.219391 65.516426 67.605942 72.866493 80.576721 83.107239 86.288773 91.339317 102.73508 110.84116 112.93068 116.33271 119.30424 122.70627 127.95737 130.04689 132.08705 136.2556 138.34512 143.60567 147.99471 152.98225 158.19661 162.48065 165.66217 168.95921 171.04874 175.21727 180.37282 182.46234 186.74638 189.9279 191.96808 199.45045 202.00093 207.05147 213.56993 217.95897 222.24301 227.50357 231.78761">transcriptsresultingfrommis-splicing,particularlyforgenes</tspan><tspan
           id="tspan142"
           y="168.03101"
           x="0.00105001 6.7946148 8.8841343 12.181166 19.381084 21.470604 26.521152 31.781702 36.170746 40.454784 45.726887 47.816406 53.076954 56.373985 59.555515 64.606064 69.866615 75.365517">withlongerintrons(</tspan><tspan
           id="tspan144"
           y="168.03101"
           x="78.520798 82.904587 87.94989 92.228676 95.194954 104.28279 108.56158 110.64585 114.04263 121.29926 125.55074 130.93625 135.18774 137.272 141.01424 145.61853 150.22282 154.82712">Fox-Walshetal.2005</tspan><tspan
           id="tspan146"
           y="168.03101"
           x="159.42197 162.5972 166.33943 171.83833 176.99704 183.34645 186.63507 188.733 196.84012 203.18953 206.47816 210.72966 215.26465 219.51614 226.82947 230.17479">).Thetimetakento</tspan><tspan
           id="tspan148"
           y="179.99271"
           x="0.00105001 3.2938814 6.4712114 10.751053 16.007402 19.405235 23.569574 26.746904 28.832224 33.878574 41.078491 43.163811 48.420162 51.712994 54.890324 59.936672 65.193024 71.542435 75.680519 79.960365 88.180893 93.227242 100.42715 103.82499 105.91031 110.29515 115.5515 117.63682 120.16315 122.24847 126.4128 130.69264 135.94899 139.24182 143.83353 148.32336 151.72119 155.01402 157.09935 165.20122 169.48106 172.7739 177.05374 183.40315 188.44844 193.94734 197.23598 202.38733 209.58725 212.76457 217.04442 220.38976 227.58966 232.63602">transcribeintronscanbesignificant.Estimatesoftherateof</tspan><tspan
           id="tspan150"
           y="192.01112"
           x="0.00105001 3.2917814 6.4670115 10.744752 15.999002 19.394735 23.556974 26.732204 28.815424 34.069675 37.360405 39.443626 44.432224 52.425949 54.523869 62.460896 66.769089 71.918335 76.406075 80.683815 83.859047 88.021286 93.065536 96.35627 100.63401 106.75661 109.93185 114.20959 119.46384 123.84658 130.8197 133.34392 136.51915 141.5634 152.33545 159.64877 162.93741 170.70433 178.01764 183.8179 191.58482 196.83908 201.11682 207.01262 215.11975 217.20297 222.45721 227.60646 230.8972">transcriptionineukaryotesrangefrom1to4Kbperminute</tspan><tspan
           id="tspan152"
           y="204.02954"
           x="0.00105001">(</tspan><tspan
           id="tspan154"
           y="204.02954"
           x="3.1762803 9.526741 12.695671 17.838619 22.11006 27.25301 31.52445 33.601372 39.043571 43.315014 48.562962 57.066994 61.375183 63.452103 70.255119 74.852066 79.449005 84.045952">ArdehaliandLis2009</tspan><tspan
           id="tspan156"
           y="204.02954"
           x="88.725845 95.245354 102.04837 104.13369 107.42652 115.93056 123.58408 131.68596 135.96579 141.11714 143.20247 147.4823 156.09973 159.27707 163.55692 166.84973 174.44656 179.4929 185.38872 188.68155 191.85887 196.13872 201.39507 204.79291 208.95724 212.13457 214.21989 219.47624 222.76907 224.85439 229.90074">)withamedianrateoftranscription</tspan><tspan
           id="tspan158"
           y="215.99126"
           x="0.00105001 4.278791 7.6745229 10.965255 13.048474 21.148251 25.425993 28.716724 32.994465 40.307785 42.859306 46.034538 51.078785 61.283833 66.329132 70.711876 74.989616 80.318413 84.91011 86.562828 91.166069 95.76931 102.51562 107.66488 112.81413 120.9139 125.19164 132.61836 137.0011 141.27884 146.5331 150.81084 156.36644 160.61794 166.06013 170.70853 172.36124 179.10756 184.90781 192.10773 197.36198 201.63972 206.96852 215.07565 217.15887 222.41312 227.56236 230.8531">estimatedfromover2,000humangenesat1.5Kbperminute</tspan><tspan
           id="tspan160"
           y="228.00967"
           x="0.00105001">(</tspan><tspan
           id="tspan162"
           y="228.00967"
           x="3.1762803 9.2043877 13.489478 15.580049 20.631647 24.034729 31.234648 35.519737 40.961941 45.247032 47.337601 51.193237 55.803833 60.414425 65.025017">Velosoetal.2014</tspan><tspan
           id="tspan164"
           y="228.00967"
           x="69.620911 72.812943 76.668579 83.042137 88.59774 92.892288 100.31901 104.61355 108.86504 112.17257 115.3646 119.65914 127.70956 134.22908 138.48058 142.73206 147.04025 155.15683 160.37222 162.47224 168.93506 173.99611 178.7579 182.06543 187.16743 193.68695 196.97557 199.07559 207.12602 213.64554 216.93417 221.18565 225.66396 229.9585">).Asanextremeexampleofthetimetaken</tspan><tspan
           id="tspan166"
           y="240.02809"
           x="0.0021000199 3.2928314 10.436049 13.726781 16.958712 21.236452 26.490702 29.886435 34.048676 37.223904 39.307125 44.351372 50.757484 52.840702 57.884953 63.139202 69.658714 71.741936 76.996185 80.286911 83.462143 88.506393 93.760643 97.156372 100.95531 104.24604 109.39529 115.8014 120.9034 126.05265 134.15242 138.43018 145.85689 151.00613 155.16838 158.56412 161.85484 165.03008 170.07433 175.32857 180.47781 182.56104 189.93106 194.3138 198.59154 203.84579 208.12354 211.92247 218.66878 223.81804 225.90125 230.06349">totranscribelongintrons,thehumandystrophingene,which</tspan><tspan
           id="tspan168"
           y="251.98981"
           x="0.0021000199 2.0853198 8.4347305 13.037974 14.69069 22.230812 30.791544 38.785271 40.88319 49.047016 51.144936 55.422676 60.676929 65.059669 68.350403 73.499649 78.091347 82.694588 87.297829 97.332779 102.37702 107.87593 114.66319 119.81244 121.89566 126.0579 134.10832 136.20625 142.55566 144.65358 149.90782 153.19856 156.37379 161.41803 166.67229 168.75551 172.91774 177.50945 181.67168 185.94942 194.16995 197.45859 201.73633 206.27132 213.47124 218.62993 226.79376 230.0824">is2.3Mbinlength,99%ofwhichisintronic,cantakeupto</tspan><tspan
           id="tspan170"
           y="264.00821"
           x="0.0021000199 4.6021938 10.951604 18.775229 22.120562 29.830784 33.119415 36.291496 40.566086 45.817184 49.20977 53.368858 56.540939 58.62101 63.662106 70.635223">16htotranscribe(</tspan><tspan
           id="tspan172"
           y="264.00821"
           x="73.81675 79.291504 83.569244 88.823494 94.077744 98.239983 101.63572 106.67997 114.61699 118.92519 124.87769 129.12918 131.2124 135.57729 140.18054 144.78378 149.38702">Tennysonetal.1995</tspan><tspan
           id="tspan174"
           y="264.00821"
           x="154.03752 157.2159 161.52409 165.68948 170.73688 173.91525 177.09364 181.37453 184.77341 190.03081 195.0782 200.3356 205.48801 207.57437 212.83177 219.91829 223.21217 230.92239">),correspondingtoa</tspan><tspan
           id="tspan176"
           y="276.02664"
           x="0.00315003 3.1783803 7.456121 10.746852 18.173573 23.217821 28.886826 33.49007 35.142784 42.90971 48.692112 56.912643 62.184742 66.462486 72.81189 80.911667 82.994888 88.249138 93.398392 96.689117 100.96686 105.78535 108.11008 116.50071 120.6955 125.73975 130.994 134.33932 137.51456 141.7923 145.18803 148.47876 153.29726 157.68001 161.95775 167.21199 171.48973 178.06595 181.35458 186.50383 190.78157 197.24438 201.55257 204.7278 212.15453 217.30377 219.38699 223.76973 228.91898 231.0022">rateof2.4Kbperminute.Incontrast,genesthatarehighly</tspan><tspan
           id="tspan178"
           y="287.98834"
           x="0.00315003 4.2735405 8.5817318 13.828631 16.996511 21.266903 24.655285 28.043667 32.351856 41.876499 45.165131 49.43552 54.682423 64.207062 67.495689 76.906929 82.065628 86.336021 90.757614 99.375046 102.77708 107.91898 112.95588 116.12376 123.83398 125.90985 131.15675 134.44012 137.67206 142.70895 147.95586 155.72278">expressedtendtohaveshortintrons(</tspan><tspan
           id="tspan180"
           y="287.98834"
           x="158.97046 164.88518 169.16187 172.55655 175.84622 177.92839 180.01056 182.09273 187.13593 190.10011 196.66582 200.94252 205.3242 207.40637 215.17329 219.45 227.16022 231.4369 233.51907">Castillo-Davisetal.</tspan><tspan
           id="tspan182"
           y="300.00677"
           x="0.00315003 4.5948439 9.1865377 13.834931">2002</tspan><tspan
           id="tspan184"
           y="300.00677"
           x="18.428726 21.599756 27.438862 31.712402 36.962452 46.31699 50.681881 54.955425 60.205475 64.479012 72.075836 75.362366 80.507416 84.815605 92.242325 95.474258 99.725746 104.8708 110.01585 112.09486 115.3268 123.77413 126.94516 131.2187 136.46875 138.54778 147.90231 149.94353 155.19357 160.33862 165.48367 169.64171 172.92825 175.00726 180.04732 189.51526 191.59427 201.06221 204.23325 208.54144 211.93297 217.18301 222.22307 227.47311 230.86465">),andgenesthatrequirerapidinductioninresponse</tspan><tspan
           id="tspan186"
           y="312.02518"
           x="0.00315003 3.2959814 11.289707 14.68754 17.980371 21.157701 25.437542 28.835375 35.184784 39.464626 42.641956 49.841873 51.939796 57.196144 60.488976 63.666306 68.712654 76.87648 82.148582 87.194931 92.24128 98.363884">tostressareintronpoor(</tspan><tspan
           id="tspan188"
           y="312.02518"
           x="101.54017 103.84599 108.12583 110.65215 113.17847 117.45832 120.63565 124.91549 131.26489 135.54474 141.72404 146.00389 148.0892 152.68091 157.28625 161.89159 166.49693">Jeffaresetal.2008</tspan><tspan
           id="tspan190"
           y="312.02518"
           x="171.10228 174.33421">).</tspan><tspan
           id="tspan192"
           y="-12.258867"
           x="269.74756 275.22968 280.38626 287.75629 292.00778 296.39786 301.44946 303.54004 308.69662 311.99472 314.0853 319.1369 327.47083 331.75592 337.01752 345.23804 347.78955 352.89157 358.16367 362.33325 365.63132 367.72189 372.71051 377.97211 382.2572 387.41589 390.81793 392.90848 397.29858 402.56018 404.65076 407.18234 409.27289 413.44247 417.72757 422.98917 427.15878 434.52878 439.5741 445.1864 447.2843 451.5694 454.75198 459.14206 466.45538 468.54596 473.80756 477.10565 480.28824 485.33981 490.60141">Theevolutionandfunctionalsignificanceoflargeintrons</tspan><tspan
           id="tspan194"
           y="-0.24045229"
           x="258.74872 260.83508 270.41641 278.51935 282.80023 290.90317 298.95358 303.2345 305.32086 312.9744 318.13309 322.41397 330.0675 335.1149 339.39578 343.67667 353.20132 361.30423 366.45663 370.62204 380.08997 385.24237 389.52325 394.57065 398.85156 402.14542 406.42633 411.5787">inmammalshasbeenmuchdebated.</tspan><tspan
           id="tspan196"
           y="-0.24045229"
           x="417.54593 421.81735 425.9733 431.22125 435.3772 444.78842 447.96365 452.56061 457.20901 461.80594">Lynch(2002</tspan><tspan
           id="tspan198"
           y="-0.24045229"
           x="466.4155">,</tspan><tspan
           id="tspan200"
           y="-0.24045229"
           x="472.36801 476.95969 481.55139 486.14307">2006</tspan><tspan
           id="tspan202"
           y="-0.24045229"
           x="490.79358">)</tspan><tspan
           id="tspan204"
           y="11.777962"
           x="258.74976 264.01453 267.20026 272.255 277.51974 282.57449 285.98071 290.23221 299.47336 302.7746 307.87659 312.16483 319.47815 321.57187 326.83661 330.13785 333.32358 338.37833 347.67615 351.96442 356.21588 361.48065 365.73215 370.99689 374.40311 376.49683 381.55157 390.84943 392.94736 400.43076 408.76468 410.8584 415.10989 418.29562 422.68887 426.97711 429.07083 437.29135 445.62531 449.03152 453.28302 461.39328 463.487 466.46274 471.72748 475.97897 481.1377 484.4389 487.62463 491.91287">proposedthatintronexpansionisalargelyasemi-neutral</tspan><tspan
           id="tspan206"
           y="23.740726"
           x="258.74976 264.01031 267.19183 272.2424 276.41092 280.69498 284.09702 287.49902 292.60104 295.78256 300.06662 303.46863 308.62418 310.71371 314.01074 316.10025 321.36081 329.12775 331.67926 334.86078 339.91135 351.4205 353.5184 358.77896 362.181 367.28299 369.81351 372.34406 374.43356 378.60211 380.69162 384.97568 390.23621 396.92584 402.19794 407.35349 410.535 412.62454 415.15506 419.32361 421.41312 426.67368 434.44058 437.84262 442.12665 444.21619 448.50021 452.66876 455.96579 458.0553 463.04391 471.77475 475.06339 483.51071 486.68594 490.96997">process,resultingfrominsufficientpurifyingselectiontore-</tspan><tspan
           id="tspan208"
           y="35.75914"
           x="258.74976 266.85269 271.90009 276.28598 283.14569 285.23206 290.44748 293.84634 298.12723 301.30563 304.59949 306.68588 311.73328 316.94867 322.90118 324.98755 332.81116 337.85858 341.03696 345.42285 349.70374 354.96112 357.04749 360.44638 368.54932 374.50183 381.24814 383.3345 386.62839 394.33859 397.74063 405.84357 410.12445 412.21082 416.85922 421.14011 423.66748 426.19485 430.47574 434.64114 437.93503 440.02139 444.40729 451.2103 456.48239 461.47101 466.7431 471.89551 473.98187 478.26276 481.55664 483.64301 488.6904">moveinsertionsinorganismswithsmalleffectivepopulation</tspan><tspan
           id="tspan210"
           y="47.777554"
           x="258.74976 262.14865 264.23502 268.07489 272.3558 275.75467 281.36804 286.84592 291.99832 300.16321 304.58585 308.86673 314.12415 319.17154 327.22302 335.44458 340.60434 344.88522 348.28412 350.37048 354.75638 363.94186 372.05005 377.09744 382.2005 386.48138 392.49164 396.77252 400.17142 403.57028 407.8512 411.02957 414.32346 421.63782 424.92749 430.0799 434.36078 441.56177 443.66074 448.91812 452.21201 455.39038 460.43777 469.62326 471.66553 475.94644 481.20383 485.58972 488.88361">sizes.Thegenomedesignmodelassertsthatintronlength</tspan><tspan
           id="tspan212"
           y="59.739269"
           x="258.74976 261.94495 266.19644 268.7406 270.78183 275.07953 279.26172 282.57239 290.05582 294.4585 298.70999 303.98419 312.31812 314.8623 319.96429 325.23849 329.42068 332.73135 334.83453 339.89874 349.19656">reflectsgenefunction(</tspan><tspan
           id="tspan214"
           y="59.739269"
           x="352.34976 358.41565 360.45688 365.71112 370.75537 375.13812 378.31335 382.59109 387.74036 392.78458 401.23193 405.83517 410.43842 415.04166">Vinogradov2006</tspan><tspan
           id="tspan216"
           y="59.739269"
           x="419.64386 422.85269 428.57837 434.02057 439.17929 441.29611 448.77951 456.9129 461.95819 467.06021 471.36838 477.5477 482.76309 485.97192 490.96054">).Thismodelpro-</tspan><tspan
           id="tspan218"
           y="71.757683"
           x="258.74976 264.00821 269.05667 272.4566 276.73853 284.05185 287.34048 292.49393 296.77588 303.9758 309.13449 314.18295 319.3364 322.73633 327.01825 331.51019 335.79214 340.0741 345.33255 347.41995 352.67841 360.95563 365.32053 369.60248 374.86093 379.14285 386.39948 389.6944 393.97635 399.2348 408.24915 411.54407 420.50171 425.65515 429.9371 434.32404 442.54456 445.94449 451.04651 456.09494 459.27438 466.4743 468.5722 473.83066 477.12558 480.30502 485.35349 490.61191">posesthathousekeepinggenestendtohaveshortintrons</tspan><tspan
           id="tspan220"
           y="83.7761"
           x="258.74976 263.80136 268.08646 272.25604 276.54114 281.64313 285.04517 294.17291 297.46155 302.61813 306.90323 315.91757 319.0928 323.37787 328.53448 333.69107 335.78165 338.96423 348.09198 352.48206 356.76715 359.94974 368.96405 371.05463 373.1452 376.4433 379.74136 381.83194 390.95969 394.13492 398.41998 402.81009 407.91208 410.01001 414.2951 417.59317 419.68375 424.73535 434.827">becausetheyrequireverylittleregulation(</tspan><tspan
           id="tspan222"
           y="83.7761"
           x="438.01273 442.50781 444.59839 448.00146 452.28656 457.54816 462.59976 466.88486 470.06741 479.30856 483.5611 488.82269">Eisenbergand</tspan><tspan
           id="tspan224"
           y="95.737808"
           x="258.74976 263.02646 267.30313 271.68484 275.96152 281.21472 286.25793 293.91144 298.51364 303.11584 307.71802">Levanon2003</tspan><tspan
           id="tspan226"
           y="95.737808"
           x="312.32443 315.55637 319.58209 325.49155 330.52951 335.77744 340.1539 344.46207 347.6373 351.02673 355.29819 357.37509 361.56989 365.59564 370.01721 374.28867 379.53662 383.80804 389.64716 392.93158 398.07455 402.34598 408.01498 411.24692 415.49841 420.64136 425.7843 427.86124 431.03015 437.71976 445.81323 450.8512 454.02011 460.70975 464.90558 469.95087 478.04434 483.2923 485.36923 489.64066">).Conversely,genesthatrequiremorecomplex</tspan><tspan
           id="tspan228"
           y="107.75623"
           x="258.74976 266.85373 271.90219 277.05563 281.33759 288.65091 293.6962 300.159 304.5239 308.80585 314.0643 322.22812 325.40335 329.6853 334.07224 339.22568 341.31311 345.59503 348.88998 350.97739 356.02585 361.2843 366.8399 370.23984 375.39328 379.55972 388.63074 392.91269 400.22601 403.52094 405.60837 409.0083 412.40823 417.56168 421.84363 424.81305 428.21298 433.47144 437.75336 441.9198 444.00723 446.53564 448.62308 456.73019 461.11713 465.39908 470.65753 474.93948 482.25281 486.50427 489.68372">modesofgeneregulation,suchastissue-specificgenesare</tspan><tspan
           id="tspan230"
           y="119.77464"
           x="258.74976 260.83719 265.88562 271.14407 275.53104 279.81296 287.12628 292.27972 297.4332 301.71512 307.55423 309.65216 319.12009 324.33548 328.61743 331.79688 335.0918 340.93091 344.22583 353.46698 356.7619 361.86389 370.31122 375.58331 378.76276 383.04471 386.44464 390.72656 395.98502 400.15146 408.59879 413.6441 420.39041 422.43161 427.69006 430.98502 434.16443 439.21289 444.47134 446.55875 454.89267 458.0679 462.34985 466.73679 471.89026 473.97766 478.25961 481.55453 486.603 489.78241">longerdue,inpart,tothepresenceofintronicregulatory</tspan><tspan
           id="tspan232"
           y="131.73634"
           x="258.74976 263.05795 265.15588 269.42838 277.52289 281.79538 287.04437 290.32986 296.33908">elements(</tspan><tspan
           id="tspan234"
           y="131.73634"
           x="299.51221 305.43637 309.7225 313.12662 316.42575 318.5174 320.60901 322.70062 327.75327 330.7269 337.30206 341.5882 345.97934 348.07095 354.02347 358.3096 364.14871 368.43484 370.47607 374.72861 379.34027 383.9519 388.56354">Castillo-Davisetal.2002</tspan><tspan
           id="tspan236"
           y="131.73634"
           x="393.11218">;</tspan><tspan
           id="tspan238"
           y="131.73634"
           x="397.30698 403.34875 405.45297 410.66837 415.71365 420.07855 423.31049 427.56302 432.72171 437.78696 444.7034 449.32764 453.91931 458.51102">Vinogradov2006</tspan><tspan
           id="tspan240"
           y="131.73634"
           x="463.1279 466.3042 470.55569 472.86044 480.68408 485.72937 490.98468">).Inop-</tspan><tspan
           id="tspan242"
           y="143.75478"
           x="258.74976 264.00507 269.05035 272.44714 274.5314 277.82318 279.90747 284.95276 293.11765 296.40942 304.40421 307.69598 312.84628 314.93054 321.28101 325.66479 327.74908 332.02786 338.81616 343.40894 350.6666 355.92188 361.07217 369.173 374.21832 378.4971 384.62076 389.66605 395.16602 399.44479 404.59509 407.88687 413.03717 418.08249 421.25876 427.60922 432.76898 437.04776 441.43155 448.68921 452.94281 456.11908 460.5029 465.6532 469.93198 477.98346 481.27313 486.42343 490.70221">positiontothisview,anumberofauthorshavearguedthat</tspan><tspan
           id="tspan244"
           y="155.77318"
           x="258.74976 262.04785 267.20444 274.17755 277.57959 282.68158 287.7269 290.90948 296.86197 298.95255 304.21414 307.51224 310.69482 315.7464 321.008 327.07391 329.17184 337.05215 342.21085 344.30142 348.69153 353.84811 355.93869 362.7984 367.0499 372.31149 380.07843 385.23502 390.28662 392.3772 397.53378 402.6904 404.78094 408.07904 413.06763 418.22424 421.62732 423.7179 430.57761 434.8627 439.1478 444.40939 447.59195 451.87704 455.28012 458.68323 462.96832 470.79193 475.15683 479.44193 484.70352 488.98862 492.39169">theshortintronsinhighlyandubiquitouslyexpressedgenes,</tspan><tspan
           id="tspan246"
           y="167.73489"
           x="258.74976 262.14969 267.30313 271.46957 280.54062 284.82257 292.13589 297.28934 302.33777 307.49124 310.89117 315.1731 319.66504 323.94699 328.22891 333.48737 335.5748 340.83325 349.11047 353.49741 357.77936 363.03781 367.31976 370.71967 376.27527 380.55722 383.73666 391.90048 395.24582 400.34781 408.56833 411.74777 416.02972 419.42966 424.5831 426.6705 433.87042 438.91888 445.38168 448.78162 453.06357 455.15097 459.43292 463.59937 466.89429 468.98172 474.03015 483.2146 485.76611 490.81458">suchashousekeepinggenes,aretheresultofselectionfor</tspan><tspan
           id="tspan248"
           y="179.75331"
           x="258.74976 263.04535 265.54019 268.08224 270.18332 274.32141 276.41934 280.71494 285.93033 290.11041 294.2485 297.99075 301.16595 305.41852 308.82053 313.98764 316.08871 319.39728 321.49835 326.77048 333.17657 335.27765 342.59097 345.78406 350.03552 355.20264 360.36972 364.50781 368.80341 376.00333 380.25482 385.51538 389.79312 392.96835 397.35107 401.62881 404.91956 407.00278 413.2388 417.37686 422.42111 425.81686 429.10757 434.54977 439.59402 444.18573 447.47647 450.6517 454.92944 460.18369 463.57941 467.74167 470.97357 473.0148 478.26904 481.55978 483.64301 488.68726">efficiency,resultinginreducedenergeticcostsoftranscription</tspan><tspan
           id="tspan250"
           y="191.77173"
           x="258.74976">(</tspan><tspan
           id="tspan252"
           y="191.77173"
           x="261.98169 267.89746 272.1752 275.57092 278.86166 280.94489 283.02811 285.11133 290.15558 293.12079 299.68756 303.9653 308.34802 310.43124 317.68787 321.96561 329.10883 333.38657 335.46979 340.96869 345.56039 350.16364 354.76688">Castillo-Davisetal.2002</tspan><tspan
           id="tspan254"
           y="191.77173"
           x="359.38062">;</tspan><tspan
           id="tspan256"
           y="191.77173"
           x="364.87952 371.55759 374.72861 377.89966 383.04471 386.33124 388.41025 396.51736 400.82556 406.07562 415.08997 421.65253 426.79758 429.9686 433.36014 440.50336 445.10239 449.70145 454.30048">UrrutiaandHurst2003</tspan><tspan
           id="tspan258"
           y="191.77173"
           x="458.98981">;</tspan><tspan
           id="tspan260"
           y="191.77173"
           x="464.48871 468.75702 473.0253 478.06009 480.13388 484.55545 489.65747">Seoighe</tspan><tspan
           id="tspan262"
           y="203.73344"
           x="258.74976 263.0296 269.26562 273.54544 275.63077 280.22247 284.82782 289.43317 294.08154">etal.2005</tspan><tspan
           id="tspan264"
           y="203.73344"
           x="298.66168 301.83691">).</tspan><tspan
           id="tspan266"
           y="215.75185"
           x="269.74863 274.33716 279.44336 285.79279 289.39432 294.41022 302.71472 310.11417 314.59244 318.95734 324.41739 328.70877 332.3103 337.04272 340.53925 345.71683 353.14355 356.64011 359.88989 364.25476 369.71481 373.099 377.46704 380.69583 382.98483 388.23596 391.73248 393.8493 399.09937 404.39456 408.75943 414.03156 419.3866 423.66959 425.95862 430.24579 437.61581 440.99686 445.26935 448.87088 454.05688 456.34589 459.66919 461.95819 467.20929 474.80612 477.41434 480.79538 485.86166">Forsomegenes,thetranscriptionaldelayresultingfrom</tspan><tspan
           id="tspan268"
           y="227.77026"
           x="258.74976 262.24631 267.42389 275.30423 278.80075 280.86087 289.16541 296.96173 300.45825 304.72864 309.42221 313.68628 322.53052 326.02707 334.54999 338.04651 341.23959 345.60449 351.06454 354.50543 358.75693 362.13794 364.25687 369.50693 377.29694 379.45157 384.91162 388.23911 391.62012 396.68643 402.14648 409.04608 411.20071 418.17383 420.90387 426.11087 431.43967 435.80771 439.14987 441.4389 446.4632 451.92325 456.21463 458.50366 460.6373 468.40421 471.86295 474.15198 478.60925 483.93805 486.22708 488.8143 490.96893">thetimetakentotranscribeintronsisfunctionallysignifi-</tspan><tspan
           id="tspan270"
           y="239.73198"
           x="258.74976 263.1178 267.42389 272.88394 276.21143 281.37012 287.05069 292.19888 294.48792 301.32663 303.61563 308.92343 312.41998 315.61307 320.8631 329.56033 334.77573 339.25928 341.35196 345.83548 353.42813 355.71713 362.55585 368.0159 372.30728 375.68832 378.99692 381.28592 385.51642 390.73181 393.02084 397.36475 400.74576 402.86469 410.51822 412.80722 420.95007 426.27887 431.5289 434.7262 438.22272 442.5498 447.8786 454.68164 456.97064 465.68048 470.04538 478.35095 483.42566 486.80667 490.96579">cant.Thisintrondelayisparticularlyimportantinembry-</tspan><tspan
           id="tspan272"
           y="251.7504"
           x="258.74976 263.99982 269.29501 271.58405 278.70627 284.06131 288.3443 292.93283 297.24524 299.53424 304.61526 309.94406 318.24857 322.52948 327.98953 331.31702 336.02209 343.01517 348.21167 352.57657 355.95758 363.1785 368.63855 371.85263 376.21753 380.58557 382.73703 386.33859 393.5658 397.06232 401.33273 409.63831 414.93979 420.18985 423.38715 427.75201 432.91074 437.1622 442.41226 447.70746 451.20401 454.39706 459.64713 464.71552 469.81754 475.42984 479.90811 484.39166 489.65958">onicdevelopment,whereprecisetemporalcontrolofgene</tspan><tspan
           id="tspan274"
           y="263.7688"
           x="258.74976 263.23331 267.53729 272.99734 276.21143 280.57632 284.17786 287.60614 289.89517 294.97617 302.79977 305.08881 310.96362 314.34464 318.61713 323.9722 329.16238 331.45142 334.66129 339.02618 346.73639 350.23294 357.73526 362.21881 367.48669 371.08823 376.27423 379.65527 386.42258 391.75137 395.13242 400.1987 405.65875 409.95016 415.73257 421.08762 425.37061 429.84891 434.21378 436.50281 441.5838 447.04385 455.19089 459.55579 465.01584 470.78143 476.03149 481.04318 484.5397 489.66061">expressionisrequiredtoensureproperdevelopmentofthe</tspan><tspan
           id="tspan276"
           y="275.73053"
           x="258.74976 263.23331 271.33624 276.58627 279.78357 284.15161 291.68964">embryo(</tspan><tspan
           id="tspan278"
           y="275.73053"
           x="294.97617 299.32846 306.3215 308.39948 313.85953 318.97833 324.33337 327.53906 332.86786 339.7276 344.09247 349.55252 357.18924 361.54153 363.83057 365.98834 370.44562 374.79791 380.52362 385.33267 389.93488 394.7439">SwinburneandSilver2008</tspan><tspan
           id="tspan280"
           y="275.73053"
           x="399.40491 402.78595 406.88834 413.66089 418.7944 422.17542 424.29434 429.75439 436.59732 441.08084 449.18378 454.43384 457.6311 461.99915 467.04236 472.50241 474.63916 481.3288 486.68384 490.96683">).Duringembryonicde-</tspan><tspan
           id="tspan282"
           y="287.74893"
           x="258.74976 263.33832 267.6507 269.93973 275.02072 280.34952 288.65405 292.93494 298.39499 301.72247 305.46472 309.71619 314.19974 316.35016 318.50479 324.00369 329.35873 334.66232 339.87775 344.36127 347.58795 352.06625 359.20947 362.59052 366.86301 372.32306 374.45981 381.65973 387.0148 389.14316 393.62146 395.91046 399.34717 401.63617 406.66046 412.12051 417.54593 421.79742 425.17844 429.50763 433.87253 437.36908 439.48587 444.94592 451.33524 457.68466 461.18118 465.45157 473.7561 479.05762 484.15961 487.54065 491.86984">velopment,cellsundergorapiddivisionscreatingatemporal</tspan><tspan
           id="tspan284"
           y="299.76736"
           x="258.74976 263.1178 268.21771 273.54651 277.14804 280.46292 283.84396 288.17316 290.46216 295.71326 302.00598 307.10797 315.32849 318.82504 322.01813 326.50165 331.76956 335.37109 339.59317 342.97421 345.09314 350.42194 353.91846 356.03528 361.28534 369.41556">constraintontranscription(</tspan><tspan
           id="tspan286"
           y="299.76736"
           x="372.70209 377.06699 382.42203 386.76172 390.14276 398.2142 403.46423 407.73883 415.95935 420.4429 425.71082 433.87463 441.18796 443.15146 447.53735 452.0209 455.24759 458.62863 462.90112 465.19012 470.15771 474.96677 479.56897 484.37802">ShermoenandOFarrell1991</tspan><tspan
           id="tspan288"
           y="299.76736"
           x="488.97916 492.3602">).</tspan><tspan
           id="tspan290"
           y="311.72906"
           x="258.74872 261.25824 270.71149 277.48404 280.68973 285.93976 289.30716 294.55722 299.85242 305.20746 307.33582 309.49045 313.974 319.8089 322.09793 327.34903 330.84555 334.03864 339.2887 344.58389 352.2374 354.52643 363.97336 368.45166 372.81656 378.27661 382.56799 390.22153 394.5864 399.06995 404.33786 407.71887 412.04807 415.6496 419.07788 423.44278 432.85403 438.10406 446.40439 449.90094 455.07852 463.58255 468.0661 476.16904 481.4191 484.61636 488.98441">InDrosophila,intronsingenesexpressedbytheembryo</tspan></text>
<g
         id="g292"><g
           clip-path="url(#clipPath296)"
           id="g294"><path
             id="path300"
             style="fill:#353d9c;fill-opacity:1;fill-rule:nonzero;stroke:none"
             d="m 0.059998,260.334 33.502,0 0,87.024 -33.502,0 0,-87.024 z" /></g></g><text
         id="text302"
         style="font-variant:normal;font-weight:normal;font-size:20.00009918px;font-family:AdvP444ED9;-inkscape-font-specification:AdvP444ED9;writing-mode:lr-tb;fill:#ffffff;fill-opacity:1;fill-rule:nonzero;stroke:none"
         transform="matrix(0,-1,-1,0,9.1842,330.3495)"><tspan
           id="tspan304"
           y="0"
           x="0 12.700064 19.780098 26.860134 31.860159 40.400204 45.400227">Article</tspan></text>
<path
         id="path306"
         style="fill:#353d9c;fill-opacity:1;fill-rule:nonzero;stroke:none"
         d="m 50.457,33.902 494.135,0 0,0.51022 -494.135,0 0,-0.51022 z" /><text
         id="text308"
         style="font-variant:normal;font-weight:normal;font-size:7.99989986px;font-family:AdvT001;-inkscape-font-specification:AdvT001;writing-mode:lr-tb;fill:#231f20;fill-opacity:1;fill-rule:nonzero;stroke:none"
         transform="matrix(1,0,0,-1,50.4567,67.0677)"><tspan
           id="tspan310"
           y="0"
           x="0"></tspan></text>
<text
         id="text312"
         style="font-variant:normal;font-weight:normal;font-size:7.99989986px;font-family:AdvP42FAA2;-inkscape-font-specification:AdvP42FAA2;writing-mode:lr-tb;fill:#231f20;fill-opacity:1;fill-rule:nonzero;stroke:none"
         transform="matrix(1,0,0,-1,58.846995,67.0677)"><tspan
           id="tspan314"
           y="0"
           x="0 4.1239486 7.9998999 13.442232 18.204573 22.080524 24.540493 28.416445 32.212399 36.80434 40.264297 43.724255 47.184212 50.644165 54.102524 57.810478 61.686428 65.482384 67.022362 68.56234 71.10231 74.978264 78.190224 84.256546 88.054901 93.44043 98.882767 102.09473 103.9707 107.71226 110.09303 116.21615 121.26168 125.21764 126.75761 130.04958 133.26154 135.6335 138.17348 139.71346 142.17342 147.50215 151.24371 153.61568 156.82764 159.36761 164.12994 167.9259 174.10503 177.90097 181.13293 185.00249 188.20805 189.79523 193.87677 197.66634 201.80467 204.25824 208.12779 213.57013 216.80128 220.59084 223.7084 225.24199 228.44754 230.90111 236.28665 238.15622 241.89778 246.54652 253.00964 256.75119 258.33838 261.54395 264.6615 268.53104 270.06464 273.27017 277.91891 281.78848 283.32205 287.1116 288.6452 292.43475 295.72031 301.10583 304.28101 308.23056 314.35367 317.71924 321.00479 324.79434 326.32791 330.19748 332.65103 334.18463 337.97418 341.92374">TheAuthor2016.PublishedbyOxfordUniversityPressonbehalfoftheSocietyforMolecularBiologyandEvolution.</tspan><tspan
           id="tspan316"
           y="8.9574881"
           x="-8.390295 -4.2767467 -0.41119486 1.118386 5.9375257 7.4671068 12.229447 15.431007 21.61013 27.059662 31.005213 34.206772 40.442696 45.228233 48.341797 51.455357 54.656918 57.186485 62.005627 65.207184 67.568756 70.063126 71.593506 74.707069 76.236649 81.678978 85.590927 87.120514 89.650078 92.099648 94.46122 95.990799 99.776352 103.64191 106.18587 109.38903 115.51215 119.37931 123.32646 127.19361 130.39677 134.98871 137.42628 141.33823 146.78056 149.23174 152.43489 154.79807 160.91319 165.73233 169.53069 173.61223 176.0498 179.96175 185.40408 189.85522 192.2184 195.42155 198.62471 201.11908 202.64946 205.93263 211.37495 215.8261 219.61325 225.72838 231.84351 235.63066 239.5778 244.34575 249.13689 251.63126 254.08643 256.45358 257.98877 261.77994 265.65109 268.14545 269.68063 273.47177 279.65091 284.75323 288.5444 292.49554 294.70273 299.15787 302.94901 309.06815 315.18726 318.39441 320.7616 323.88074 325.41592 328.62308 332.42145 335.59662 337.13177 340.25095 343.4581 347.40927 349.94443">ThisisanOpenAccessarticledistributedunderthetermsoftheCreativeCommonsAttributionNon-CommercialLicense</tspan><tspan
           id="tspan318"
           y="17.971775"
           x="-8.390295 -6.0231247 -2.151973 0.30319622 2.7583656 6.709516 7.9167008 10.539868 13.204635 16.323795 18.690966 21.898127 25.105286 27.560455 29.095636 32.382793 35.589954 38.709118 42.500267 48.619392 54.685715 58.476868 62.42802 64.963188 66.170372 69.961525 72.328697 75.615852 78.239021 79.7742 81.361382 84.480545 87.687706 91.638855 94.174026 97.38118 99.916351 102.53952 106.33067 109.44983 111.68501 115.64175 118.76652 121.39528 124.85604 126.06882 129.52959 132.15834 134.53111 137.98947 143.09181 146.96857 148.55574 151.68051 157.74683 161.70358 164.91634 167.28911 173.35544 174.94261 177.38019 182.14252 186.11127 189.90802 193.86478 196.07755 199.20232 202.94386 209.06859 215.19331 218.40607 220.77884 223.90359 225.44438 228.65714 232.45549 234.83626 238.04903 240.26419 244.13135 246.66252 249.86568 253.32404 257.19119 258.77835 261.27274 263.76709 266.13028 267.66147 271.44861 275.31577 277.76694 279.3541 283.09567 287.06442 290.52277 293.75394 297.66589 303.789 306.15216 309.35535 313.26727 315.64804 319.43521 323.30237 327.16953 330.28467 332.73584 334.26703 338.05417 344.23331 345.76447 352.0004 355.20355 359.1507">(http://creativecommons.org/licenses/by-nc/4.0/),whichpermitsnon-commercialre-use,distribution,andreproductioninany</tspan><tspan
           id="tspan320"
           y="26.986063"
           x="-8.3894949 -2.2743716 0.92878836 4.8399396 6.3695202 10.236672 16.351795 19.809353 23.777304 26.140472 29.881226 33.164387 34.750767 38.617916 41.821075 47.943401 50.43697 54.304123 59.745655 63.532806 65.895973 67.427155 70.71032 72.241493 76.188644 79.391808 83.189362 88.304497 92.091652 94.454819 100.06675 101.59793 106.41627 110.36342 112.72659 116.51374 120.46089 123.66405 126.02722 127.5584 132.94315 136.0583 137.58948 140.08305 143.25742 147.16856 150.56932 153.85248 157.63963 162.28757 165.40514 169.19229 175.25781 181.37294 184.6489 187.02646 190.15602 191.7016 194.91916 198.66072 201.04149 204.25905 206.47662 210.35817 212.90373 216.0789 219.53726 223.49881 225.04439 228.26195 231.4371 233.98268 239.425 242.55457 246.35612 250.31767 252.75523 255.97279 259.10236 263.80789 265.33829 269.13983 273.02139 275.39896 279.3605 282.53568 284.06604 286.6116 287.82919 291.74115 294.97232 297.34988 303.4794 305.02499 307.57056 310.06491 311.6521 315.45364 319.3656 321.91116 327.62469 331.36627 335.2782 339.19016 340.43735 343.56689 347.36847">medium,providedtheoriginalworkisproperlycited.Forcommercialre-use,pleasecontactjournals.permissions@oup.com</tspan></text>
<text
         id="text322"
         style="font-variant:normal;font-weight:normal;font-size:20.00009918px;font-family:AdvP449CFA;-inkscape-font-specification:AdvP449CFA;writing-mode:lr-tb;fill:#353d9c;fill-opacity:1;fill-rule:nonzero;stroke:none"
         transform="matrix(1,0,0,-1,442.5448,41.3291)"><tspan
           id="tspan324"
           y="0"
           x="0 14.16007 24.780125 33.520168 49.790249 62.29031 70.630356 78.970398 87.710442 94.790474">OpenAccess</tspan></text>
<text
         id="text326"
         style="font-variant:normal;font-weight:normal;font-size:10.00010014px;font-family:AdvP42FAA2;-inkscape-font-specification:AdvP42FAA2;writing-mode:lr-tb;fill:#231f20;fill-opacity:1;fill-rule:nonzero;stroke:none"
         transform="matrix(1,0,0,-1,50.4567,19.8992)"><tspan
           id="tspan328"
           y="0"
           x="0 4.3650436 8.7870874 13.152131">2682</tspan></text>
<text
         id="text330"
         style="font-variant:normal;font-weight:normal;font-size:10.00010014px;font-family:AdvP444D99;-inkscape-font-specification:AdvP444D99;writing-mode:lr-tb;fill:#231f20;fill-opacity:1;fill-rule:nonzero;stroke:none"
         transform="matrix(1,0,0,-1,130.96051,19.8992)"><tspan
           id="tspan332"
           y="0"
           x="0 7.8300781 12.220122 14.210142 18.575186 23.385233 25.375254 29.765297 31.755318 36.120361 40.2024 44.172443 48.562485 50.552505">Mol.Biol.Evol.</tspan></text>
<text
         id="text334"
         style="font-variant:normal;font-weight:normal;font-size:10.00010014px;font-family:AdvP42FAA2;-inkscape-font-specification:AdvP42FAA2;writing-mode:lr-tb;fill:#231f20;fill-opacity:1;fill-rule:nonzero;stroke:none"
         transform="matrix(1,0,0,-1,185.89605,19.8992)"><tspan
           id="tspan336"
           y="0"
           x="0 4.3790436 8.8010883 11.820118 16.242163 20.621206 23.640236 25.209251 29.631296 34.010342 38.389385 42.811428 48.130482 52.509525 56.888569 61.310612 75.710754 80.586807 85.385857 87.364876 88.933891 93.312935 97.734978 99.265991 103.68803 108.05308 112.47513 116.84017 120.1792 127.88828 132.68733 134.66635 139.46539 143.53444 147.70348 151.04251 158.80959 162.04062 168.49968 172.87872 177.30077 191.70091 197.74998 202.64903 206.81807 210.88712 215.88615 219.8452 226.70526 232.77133 236.73036 240.68941 244.75845 247.98747 254.05354 259.0426 263.94165 268.74069 270.7197 272.69873 276.65778 280.72681 283.85583 285.83487 290.63391 298.45798 304.52405 309.4231 313.59213 318.49118 321.77921 327.67526 332.09732 336.47638 340.8414 345.26346 349.64249 354.02155">33(10):26822691doi:10.1093/molbev/msw151AdvanceAccesspublicationAugust22,2016</tspan></text>
</g><g
       id="g338"><g
         id="g340"><text
           id="text342"
           style="font-variant:normal;font-weight:normal;font-size:6px;font-family:Courier;-inkscape-font-specification:Courier;writing-mode:lr-tb;fill:#000000;fill-opacity:1;fill-rule:nonzero;stroke:none"
           transform="matrix(1,0,0,-1,3,18)"><tspan
             id="tspan344"
             y="0"
             x="0 3.5999999 7.1999998 10.8 14.4 18 21.6 25.200001 28.799999 32.400002 36 39.599998 43.200001 46.799999 50.400002 54 57.599998 61.200001 64.800003 68.400002 72 75.599998 79.199997 82.800003 86.400002 90 93.599998 97.199997 100.8 104.4 108 111.6 115.2 118.8 122.4 126 129.60001 133.2 136.8 140.39999 144 147.60001 151.2 154.8 158.39999 162 165.60001 169.2 172.8 176.39999 180 183.60001 187.2 190.8 194.39999 198 201.60001 205.2 208.8 212.39999 216 219.60001 223.2 226.8 230.39999 234 237.60001 241.2 244.8 248.39999 252 255.60001 259.20001 262.79999 266.39999 270 273.60001 277.20001 280.79999 284.39999">Downloaded from https://academic.oup.com/mbe/article-abstract/33/10/2682/2925609</tspan></text>
<text
           id="text346"
           style="font-variant:normal;font-weight:normal;font-size:6px;font-family:Courier;-inkscape-font-specification:Courier;writing-mode:lr-tb;fill:#000000;fill-opacity:1;fill-rule:nonzero;stroke:none"
           transform="matrix(1,0,0,-1,3,12)"><tspan
             id="tspan348"
             y="0"
             x="0 3.5999999 7.1999998 10.8 14.4 18 21.6 25.200001 28.799999 32.400002 36 39.599998 43.200001 46.799999 50.400002 54 57.599998 61.200001 64.800003 68.400002 72 75.599998 79.199997 82.800003 86.400002 90 93.599998 97.199997 100.8 104.4 108 111.6 115.2 118.8 122.4 126 129.60001">by Brandeis University Libraries user</tspan></text>
<text
           id="text350"
           style="font-variant:normal;font-weight:normal;font-size:6px;font-family:Courier;-inkscape-font-specification:Courier;writing-mode:lr-tb;fill:#000000;fill-opacity:1;fill-rule:nonzero;stroke:none"
           transform="matrix(1,0,0,-1,3,6)"><tspan
             id="tspan352"
             y="0"
             x="0 3.5999999 7.1999998 10.8 14.4 18 21.6 25.200001 28.799999 32.400002 36 39.599998 43.200001 46.799999 50.400002 54 57.599998 61.200001 64.800003">on 25 February 2018</tspan></text>
</g></g></g></svg>