<?xml version="1.0" encoding="UTF-8" standalone="no"?>
<svg
   xmlns:dc="http://purl.org/dc/elements/1.1/"
   xmlns:cc="http://creativecommons.org/ns#"
   xmlns:rdf="http://www.w3.org/1999/02/22-rdf-syntax-ns#"
   xmlns:svg="http://www.w3.org/2000/svg"
   xmlns="http://www.w3.org/2000/svg"
   viewBox="0 0 765 992.5"
   height="992.5"
   width="765"
   xml:space="preserve"
   version="1.1"
   id="svg2"><metadata
     id="metadata8"><rdf:RDF><cc:Work
         rdf:about=""><dc:format>image/svg+xml</dc:format><dc:type
           rdf:resource="http://purl.org/dc/dcmitype/StillImage" /></cc:Work></rdf:RDF></metadata><defs
     id="defs6"><clipPath
       id="clipPath458"
       clipPathUnits="userSpaceOnUse"><path
         id="path460"
         d="m 45.808,65.027 251.093,0 0,-24.775 -251.093,0 0,24.775 z" /></clipPath></defs><g
     transform="matrix(1.25,0,0,-1.25,0,992.5)"
     id="g10"><path
       id="path12"
       style="fill:#006bb6;fill-opacity:1;fill-rule:nonzero;stroke:none"
       d="m 117.581,733.946 448.271,0 0,-0.454 -448.271,0 0,0.454 z" /><path
       id="path14"
       style="fill:#006bb6;fill-opacity:1;fill-rule:nonzero;stroke:none"
       d="m 117.581,733.946 0.454,0 0,-8.957 -0.454,0 0,8.957 z" /><text
       id="text16"
       style="font-variant:normal;font-weight:normal;font-size:7.97020006px;font-family:AdvPSA35D;-inkscape-font-specification:AdvPSA35D;writing-mode:lr-tb;fill:#000000;fill-opacity:1;fill-rule:nonzero;stroke:none"
       transform="matrix(1,0,0,-1,120.0756,724.8754)"><tspan
         id="tspan18"
         y="0"
         x="0 6.2247262 10.624276 15.51798 20.411682 27.959461 34.637691 40.360294 45.253998 49.653549 51.893177 56.292725 60.277824 62.517452">GenomeAnalysis</tspan></text>
<text
       id="text20"
       style="font-variant:normal;font-weight:normal;font-size:19.9253006px;font-family:AdvPSA35F;-inkscape-font-specification:AdvPSA35F;writing-mode:lr-tb;fill:#000000;fill-opacity:1;fill-rule:nonzero;stroke:none"
       transform="matrix(1,0,0,-1,45.8079,697.6061)"><tspan
         id="tspan22"
         y="0"
         x="0 11.000758 16.601761 27.602518 38.603275 46.276508 51.87751 64.11364 82.375175 94.611305 107.26586 117.2305 129.46663 141.70276 151.6674 162.66815 170.34138 181.34215 192.34291 210.63234 220.59698 231.59773 243.83386 256.07001 267.07074 279.41049 289.37512 300.37589 316.32211 326.28674 338.52289 349.52362 361.75977 372.76053 388.72867 400.96478 413.2009 432.07217 443.07291 461.41614 467.01715 479.25327 486.92651 494.59973 506.83588">Fixationofconservedsequencesshapeshumanintron</tspan><tspan
         id="tspan24"
         y="22.28047"
         x="0 9.9626503 15.561659 25.524309 42.576382 53.575146 65.80928 84.019012 89.618019 101.85216 114.08629 126.42403 137.42281 149.65694 159.61958 170.61835 186.57454 194.24577 201.91701 212.91577 225.14992 235.11256 247.34669 259.70834 269.67099 281.90515 294.13928 300.77438 306.37341 318.60754 328.57019 339.56897 347.2402 354.91144 360.51044 372.74457 391.12167 403.3558 414.35458 426.58871 437.58749 456.45676 462.05576 472.0184">sizeandinfuencestransposon-insertiondynamics</tspan></text>
<text
       id="text26"
       style="font-variant:normal;font-weight:normal;font-size:12.95149994px;font-family:AdvPSA35F;-inkscape-font-specification:AdvPSA35F;writing-mode:lr-tb;fill:#000000;fill-opacity:1;fill-rule:nonzero;stroke:none"
       transform="matrix(1,0,0,-1,45.8079,645.6754)"><tspan
         id="tspan28"
         y="0"
         x="0 12.265071 19.414299 27.36652 35.318741 42.467968 46.107342 57.204185 65.829887 69.469254 74.455582 82.407806 90.360023">ManuelaSironi</tspan></text>
<text
       id="text30"
       style="font-variant:normal;font-weight:normal;font-size:9.71350002px;font-family:AdvPSA35F;-inkscape-font-specification:AdvPSA35F;writing-mode:lr-tb;fill:#000000;fill-opacity:1;fill-rule:nonzero;stroke:none"
       transform="matrix(1,0,0,-0.88878365,139.8614,651.4581)"><tspan
         id="tspan32"
         y="0"
         x="0">1</tspan></text>
<text
       id="text34"
       style="font-variant:normal;font-weight:normal;font-size:12.95149994px;font-family:AdvPSA35F;-inkscape-font-specification:AdvPSA35F;writing-mode:lr-tb;fill:#000000;fill-opacity:1;fill-rule:nonzero;stroke:none"
       transform="matrix(1,0,0,-1,145.1905,645.6754)"><tspan
         id="tspan36"
         y="0"
         x="0 7.5403633 17.655485 21.294857 29.247078 34.233406 42.185627 45.824997 56.864857 69.129929 76.279152 84.231377 92.183594 98.659348 105.13509">,GiorgiaMenozzi</tspan></text>
<text
       id="text38"
       style="font-variant:normal;font-weight:normal;font-size:9.71350002px;font-family:AdvPSA35F;-inkscape-font-specification:AdvPSA35F;writing-mode:lr-tb;fill:#000000;fill-opacity:1;fill-rule:nonzero;stroke:none"
       transform="matrix(1,0,0,-0.88878365,254.0409,651.4581)"><tspan
         id="tspan40"
         y="0"
         x="0">1</tspan></text>
<text
       id="text42"
       style="font-variant:normal;font-weight:normal;font-size:12.95149994px;font-family:AdvPSA35F;-inkscape-font-specification:AdvPSA35F;writing-mode:lr-tb;fill:#000000;fill-opacity:1;fill-rule:nonzero;stroke:none"
       transform="matrix(1,0,0,-1,259.37,645.6754)"><tspan
         id="tspan44"
         y="0"
         x="0 7.5403633 17.655485 21.294857 28.444084 34.919834 42.872055 55.137127 67.01236 74.964577 82.489395 91.115097 99.067322 111.33239">,GiacomoP.Comi</tspan></text>
<text
       id="text46"
       style="font-variant:normal;font-weight:normal;font-size:9.71350002px;font-family:AdvPSA35F;-inkscape-font-specification:AdvPSA35F;writing-mode:lr-tb;fill:#000000;fill-opacity:1;fill-rule:nonzero;stroke:none"
       transform="matrix(1,0,0,-0.88878365,374.3999,651.4581)"><tspan
         id="tspan48"
         y="0"
         x="0">2</tspan></text>
<text
       id="text50"
       style="font-variant:normal;font-weight:normal;font-size:12.95149994px;font-family:AdvPSA35F;-inkscape-font-specification:AdvPSA35F;writing-mode:lr-tb;fill:#000000;fill-opacity:1;fill-rule:nonzero;stroke:none"
       transform="matrix(1,0,0,-1,379.729,645.6754)"><tspan
         id="tspan52"
         y="0"
         x="0 7.5403633 17.655485 24.804712 29.79104 36.940269 48.814205 57.439903 62.426231 69.575455 76.051208 84.003426 87.642799 91.282173">,NereoBresolin</tspan></text>
<text
       id="text54"
       style="font-variant:normal;font-weight:normal;font-size:9.71350002px;font-family:AdvPSA35F;-inkscape-font-specification:AdvPSA35F;writing-mode:lr-tb;fill:#000000;fill-opacity:1;fill-rule:nonzero;stroke:none"
       transform="matrix(1,0,0,-0.88878365,478.9983,651.4581)"><tspan
         id="tspan56"
         y="0"
         x="0 5.3618522 8.0913458">1,2</tspan></text>
<text
       id="text58"
       style="font-variant:normal;font-weight:normal;font-size:12.95149994px;font-family:AdvPSA35F;-inkscape-font-specification:AdvPSA35F;writing-mode:lr-tb;fill:#000000;fill-opacity:1;fill-rule:nonzero;stroke:none"
       transform="matrix(1,0,0,-1,492.4346,645.6754)"><tspan
         id="tspan60"
         y="0"
         x="0">,</tspan><tspan
         id="tspan62"
         y="15.250391"
         x="-446.62729 -438.00159 -430.85236 -424.37662 -416.42441 -409.27518 -405.6358 -394.5817 -385.95599 -378.80676 -370.85455 -367.21518 -363.57581 -356.42657 -348.47437">RacheleCagliani</tspan></text>
<text
       id="text64"
       style="font-variant:normal;font-weight:normal;font-size:9.71350002px;font-family:AdvPSA35F;-inkscape-font-specification:AdvPSA35F;writing-mode:lr-tb;fill:#000000;fill-opacity:1;fill-rule:nonzero;stroke:none"
       transform="matrix(1,0,0,-0.88878365,147.685,636.1511)"><tspan
         id="tspan66"
         y="0"
         x="0">1</tspan></text>
<text
       id="text68"
       style="font-variant:normal;font-weight:normal;font-size:12.95149994px;font-family:AdvPSA35F;-inkscape-font-specification:AdvPSA35F;writing-mode:lr-tb;fill:#000000;fill-opacity:1;fill-rule:nonzero;stroke:none"
       transform="matrix(1,0,0,-1,156.926,630.425)"><tspan
         id="tspan70"
         y="0"
         x="0 7.1492281 15.101449 26.930054 37.045174 44.997395 52.146626 57.132954 62.119278 73.98674 81.938957 89.891182 96.366928 102.84268 110.7949 114.43427">andUbertoPozzoli</tspan></text>
<text
       id="text72"
       style="font-variant:normal;font-weight:normal;font-size:9.71350002px;font-family:AdvPSA35F;-inkscape-font-specification:AdvPSA35F;writing-mode:lr-tb;fill:#000000;fill-opacity:1;fill-rule:nonzero;stroke:none"
       transform="matrix(1,0,0,-0.88878365,275.0173,636.1511)"><tspan
         id="tspan74"
         y="0"
         x="0">1</tspan></text>
<text
       id="text76"
       style="font-variant:normal;font-weight:normal;font-size:6.35099983px;font-family:AdvPSA35D;-inkscape-font-specification:AdvPSA35D;writing-mode:lr-tb;fill:#000000;fill-opacity:1;fill-rule:nonzero;stroke:none"
       transform="matrix(1,0,0,-0.88882066,45.8079,614.6077)"><tspan
         id="tspan78"
         y="0"
         x="0">1</tspan></text>
<text
       id="text80"
       style="font-variant:normal;font-weight:normal;font-size:8.46819973px;font-family:AdvPSA35D;-inkscape-font-specification:AdvPSA35D;writing-mode:lr-tb;fill:#000000;fill-opacity:1;fill-rule:nonzero;stroke:none"
       transform="matrix(1,0,0,-1,49.3228,610.866)"><tspan
         id="tspan82"
         y="0"
         x="0 5.6398211 9.8739214 12.253486 16.927933 22.127407 24.947317 27.326881 32.526356 39.343258 41.72282 46.922295 51.156395 53.976307 56.355869 59.175781 64.375259 67.195168 74.434631 76.814194 82.454018 88.093842 93.733658 101.93003 107.1295 112.07748 120.09686 124.77131 129.97078 134.64523 139.31967 144.2778 149.91763 152.2972 159.47145 165.55162 170.7511 178.51982 183.19426 188.39374 190.7733 195.97278 200.91228 208.93167 214.13113 219.33061 223.11591 230.39177 235.06622 239.74068 244.6209 249.29533 253.96979 258.64423 263.31866 270.58524 276.22507 281.42453 285.65863 288.03821 292.27231 294.65186 302.38843 307.58789 312.26233 315.52258 317.90216 323.10162 328.06909 330.88898 335.56345 341.20325 344.02316 348.93134 351.31091 354.1308 358.80527 361.18481">ScientifcInstituteIRCCSE,Medea,ViaDonLuigiMonza20,23842BosisioParini(LC),Italy</tspan></text>
<text
       id="text84"
       style="font-variant:normal;font-weight:normal;font-size:6.35099983px;font-family:AdvPSA35D;-inkscape-font-specification:AdvPSA35D;writing-mode:lr-tb;fill:#000000;fill-opacity:1;fill-rule:nonzero;stroke:none"
       transform="matrix(1,0,0,-0.88882066,45.8079,604.1763)"><tspan
         id="tspan86"
         y="0"
         x="0">2</tspan></text>
<text
       id="text88"
       style="font-variant:normal;font-weight:normal;font-size:8.46819973px;font-family:AdvPSA35D;-inkscape-font-specification:AdvPSA35D;writing-mode:lr-tb;fill:#000000;fill-opacity:1;fill-rule:nonzero;stroke:none"
       transform="matrix(1,0,0,-1,49.3228,600.3778)"><tspan
         id="tspan90"
         y="0"
         x="0 5.6398211 10.314267 15.513742 18.333652 21.59391 29.366024 35.44619 37.825756 43.02523 50.79565 55.470097 60.144543 63.4048 66.665054 71.3395 74.599762 76.979324 81.918823 87.998993 90.378555 95.578033 100.25248 103.51273 106.33265 108.71221 116.7316 121.40604 126.60551 129.42543 137.19162 142.39108 147.33907 152.97888 157.21298 159.59254 164.26698 169.46646 173.25175 180.50307 187.11673 191.79118 196.99066 200.25092 205.45039 207.82996 213.02942 218.2289 220.60846 224.84256 230.04204 234.71649 239.68732 246.30098 251.50046 253.88002 258.55447 263.22891 266.48917 270.72327 273.10284 275.92276 277.11423 283.17999 288.37946 293.27069 301.2901 303.66965 306.04922 310.72366 315.92313 321.12262 326.0943 328.47385 334.11368 339.75351 345.39331 353.58969 360.20337 364.43747 369.63693 374.31137 379.51086 384.1853 386.56485 393.78314 401.80255 406.47699 411.67645 416.87595 419.25549 424.45499 427.71524 434.99704 440.1965 445.396 447.77554 450.15512 454.38922 456.76877 459.14835 464.34781 466.72739 470.96149 476.16095">CentroDinoFerrari,DipartimentodiScienzeNeurologiche,Universita`diMilano,IRCCSOspedaleMaggiorePoliclinico,</tspan><tspan
         id="tspan92"
         y="10.77155"
         x="-3.5151498 2.1246715 4.5042357 11.734385 16.408831 19.669088 24.343534 29.543009 33.777111 38.451557 42.685658 46.919754 54.705418 60.345242 63.16515 68.364624 71.624886 75.410172 82.65387 87.328316 92.002762 96.93972 101.61417 106.28861 110.96306 115.6375 122.84733 130.86671 133.24628 135.62584 140.30029 145.49977 150.45535 152.83492 155.65483 160.32928 162.70885">ViaFrancescoSforza35,20100Milan,Italy</tspan></text>
<text
       id="text94"
       style="font-variant:normal;font-weight:normal;font-size:9.46459961px;font-family:AdvPSA35F;-inkscape-font-specification:AdvPSA35F;writing-mode:lr-tb;fill:#000000;fill-opacity:1;fill-rule:nonzero;stroke:none"
       transform="matrix(1,0,0,-1,45.8079,553.4928)"><tspan
         id="tspan96"
         y="0"
         x="0 5.8112645 11.622529 22.110252 27.921516 33.145977 37.878277 40.537827 50.513515 53.66523 59.476494 68.428108 71.087662 76.898926 80.542801 84.186668 89.997932 101.08288 106.30733 111.53179 117.34306 122.56752 128.37878 133.11108 135.77063 141.58189 152.61667 155.27623 166.33656 172.14783 177.95909 186.92206 192.14653 197.95779 208.0054 210.66496 220.64822 223.30777 228.53223 232.1761 237.98737 243.21182 245.87138">Thebasisforintronexpansioninhumansislargely</tspan><tspan
         id="tspan98"
         y="11.452166"
         x="0 5.8112645 11.622529 16.846989 22.071447 27.882711 30.542265 36.353527 39.997398 45.221859 51.033123 57.202148 59.861702 69.221245 72.865112 78.676384 81.33593 89.573921 94.798378 98.442253 102.08612 104.74567 109.47797 112.13753 117.36198 123.53291 131.90907 140.59758 146.40884 151.6333 160.59628 166.40755 172.21881 176.95111 180.59499 184.23885 189.4633 193.10718 201.82503 205.46889 211.28015 216.50462 223.70813 226.36768 232.17894 235.82281 239.46669 245.27795">unexplored.Inthisarticle,wedemonstratethatintron</tspan><tspan
         id="tspan100"
         y="22.904331"
         x="0 5.2244592 10.448918 16.260183 21.484642 27.295906 32.028206 34.687759 40.499023 49.209293 55.020557 60.245018 67.861183 73.672447 77.316315 79.975868 88.938843 94.163307 97.807175 100.46673 103.12628 111.23082 117.04208 122.26654 127.491 136.23251 142.04378 147.26823 150.91209 156.13657 159.78043 168.74341 171.40295 177.21422 182.43869 191.1111 196.92236 205.05719 210.86845 216.09291 221.31737 224.96124 227.62079 233.43205 242.1338 247.94507">expansionhasprimarilybeendeterminedbyfxationof</tspan><tspan
         id="tspan102"
         y="34.356499"
         x="0 8.9629765 14.77424 17.433794 21.077663 23.737217 28.469517 34.280781 39.505241 44.237541 46.897095 52.121552 61.851162 66.583458 72.394722 78.205986 82.938293 88.16275 91.806618 97.031082 102.25554 113.10102 117.83332 123.05779 128.86905 134.68031 139.90477 145.71603 150.44833 155.67279 165.37117 168.52289 177.48586 183.78928 190.09271 194.82501 203.01472 208.82599 214.05045 219.2749 227.90283 231.54671 234.20625 243.16924 248.39369">multispeciesconservedsequences(MCSs)overtime.</tspan><tspan
         id="tspan104"
         y="45.808662"
         x="0 5.8112645 11.622529 20.466251 26.277515 29.921387 35.145847 39.878147 45.102604 50.913868 55.646168 64.459602 70.270866 77.045631 86.008606 92.312027 98.615456 106.92253 112.7338 117.95826 126.31171 131.04401 136.85527 142.07974 147.89101 153.11546 162.48163 165.14117 170.95244 174.59631 178.24019 184.05145 193.49239 196.6441 201.86856 207.09302 210.73689 216.54816 220.19203 225.41649 230.14879 236.40868 240.05254 245.8638">ThepresenceofMCSshasshapedintronfeatures:the</tspan><tspan
         id="tspan106"
         y="57.26083"
         x="0 2.6595526 8.4708166 13.203117 18.427576 22.071447 25.715319 28.37487 34.186134 43.199272 49.01054 55.331944 58.975815 62.619686 67.844147 73.655411 78.387711 84.198975 90.010239 94.742538 99.966995 105.77826 108.43781 116.84332 122.06779 124.72734 129.9518 138.91478 144.13924 149.9505 153.59438 161.51718 164.6689 170.48016 176.29143 181.02373 187.36879 193.18005 198.40451 206.30367 212.11493 217.3394 222.56386 231.58835 236.32065 242.13191 247.94318">insertionoftransposableelements(TEs)hasbeencon-</tspan><tspan
         id="tspan108"
         y="68.712997"
         x="0 4.7322998 8.3761711 12.020042 17.244501 19.904055 25.715319 30.939777 40.307838 45.532299 53.800571 62.76355 68.574814 72.218681 81.013191 89.976166 96.279587 102.58302 110.89009 119.26627 124.49072 128.1346 136.85527 142.66653 147.89101 153.11546 158.92673 165.14496 171.94055 177.75182 182.97627 185.63582 190.86029 195.59259 198.25214 206.52988 212.34114 219.05911 224.87038 234.25264 239.4771 245.28836">strainedasmoreMCSswerefxed.AnalysisofTEand</tspan><tspan
         id="tspan110"
         y="80.165161"
         x="0 8.9629765 15.266399 23.980457 29.791721 32.451275 37.183575 40.827446 44.471317 47.130867 52.942135 58.753399 62.39727 65.056824 70.868088 79.028465 83.760765 89.572029 95.383293 101.19456 106.41901 111.15131 114.79519 120.01965 128.18097 133.40543 141.61691 147.42818 153.23944 159.0507 162.69458 167.91904 172.65134 177.87579 183.68706 188.91153 194.72279 198.36665 203.59111 211.74487 216.96933 221.70163 225.3455 228.00505 236.96803 242.19249 245.83636">MCSdistributionsuggestedanunprecedentedestimate</tspan><tspan
         id="tspan112"
         y="91.617325"
         x="0 5.8112645 12.13267 14.792223 20.603487 23.755199 29.566463 33.210335 42.173309 47.39777 51.041641 53.701195 59.512459 68.484901 72.128769 77.353226 83.164497 88.975761 91.635307 95.279182 100.50364 109.46661 114.69108 120.50234 124.14621 132.03685 135.18857 140.99983 147.74051 153.55177 157.19565 163.00691 168.81818 174.04263 180.84863 185.58093 191.3922 194.05174 196.7113 201.4436 204.10315 209.91441 218.88875 224.70001 230.96463 233.62419 239.43546 245.24672">ofinformationrequirementsforpropersplicingoflong</tspan><tspan
         id="tspan114"
         y="103.06949"
         x="0 2.6595526 8.4708166 12.114688 15.758559 21.569824 27.381088 35.036057 43.412228 46.071781 49.715652 58.506371 61.165924 66.977188 72.788452 75.448006 80.180305 85.404762 89.048637 91.708191 97.519455 106.24108 112.05235 118.1466 122.8789 128.10336 133.91463 139.72589 144.95035 150.76161 155.49391 163.61359 168.34589 174.15717 179.96843 184.70073 188.34459 191.98846 197.21292 199.87248 205.68375 209.32761 216.96082 222.18527 227.40973 231.0536 236.27806 242.08932 247.90059">intronswithindicationofsequenceconstraintsextend-</tspan><tspan
         id="tspan116"
         y="114.52166"
         x="0 2.6595526 8.4708166 17.121462 22.932726 31.63448 35.278351">ingupto</tspan></text>
<text
       id="text118"
       style="font-variant:normal;font-weight:normal;font-size:9.46459961px;font-family:AdvPS4731B1;-inkscape-font-specification:AdvPS4731B1;writing-mode:lr-tb;fill:#000000;fill-opacity:1;fill-rule:nonzero;stroke:none"
       transform="matrix(1,0,0,-1,89.744466,438.97114)"><tspan
         id="tspan120"
         y="0"
         x="0">O</tspan></text>
<text
       id="text122"
       style="font-variant:normal;font-weight:normal;font-size:9.46459961px;font-family:AdvPSA35F;-inkscape-font-specification:AdvPSA35F;writing-mode:lr-tb;fill:#000000;fill-opacity:1;fill-rule:nonzero;stroke:none"
       transform="matrix(1,0,0,-1,99.155118,438.97114)"><tspan
         id="tspan124"
         y="0"
         x="0 7.5972342 12.821693 21.486534 27.2978 33.109062 41.485233 47.296497 52.028801 55.672668 59.31654 64.541 69.765457 81.580116">3kbdownstream5</tspan></text>
<text
       id="text126"
       style="font-variant:normal;font-weight:normal;font-size:6.62510014px;font-family:AdvMathSymb;-inkscape-font-specification:AdvMathSymb;writing-mode:lr-tb;fill:#000000;fill-opacity:1;fill-rule:nonzero;stroke:none"
       transform="matrix(1,0,0,-1,186.463,442.7148)"><tspan
         id="tspan128"
         y="0"
         x="0">0</tspan></text>
<text
       id="text130"
       style="font-variant:normal;font-weight:normal;font-size:9.46459961px;font-family:AdvPSA35F;-inkscape-font-specification:AdvPSA35F;writing-mode:lr-tb;fill:#000000;fill-opacity:1;fill-rule:nonzero;stroke:none"
       transform="matrix(1,0,0,-1,191.3952,438.9731)"><tspan
         id="tspan132"
         y="0"
         x="0 4.7322998 10.543565 13.203117 15.86267 20.594969 28.686256 33.418556 36.07811 39.721981 44.946438 49.678738">splicesites.</tspan><tspan
         id="tspan134"
         y="38.324059"
         x="-145.58731 -142.92776 -137.1165 -133.47263 -129.82875 -124.01749 -118.20623 -112.39497 -107.66267 -104.01879 -101.35924 -95.547974">Introduction</tspan></text>
<text
       id="text136"
       style="font-variant:normal;font-weight:normal;font-size:9.46459961px;font-family:AdvPS88D1;-inkscape-font-specification:AdvPS88D1;writing-mode:lr-tb;fill:#000000;fill-opacity:1;fill-rule:nonzero;stroke:none"
       transform="matrix(1,0,0,-1,45.807883,389.19688)"><tspan
         id="tspan138"
         y="0"
         x="0 3.8426275 9.4674397 13.698115 17.80102 22.393244 27.617702 31.803896 41.214546 44.167503 54.650494 60.31979 66.13105 74.322662 79.547127 84.130829 93.088127 98.190491 104.00175 114.06452 118.39931 121.15067 125.68421 135.03996 139.77226 147.5692 150.40385 156.21512 159.70187 163.93256 168.48882 174.30008 177.04955 186.00684 190.34163 194.90735 200.00972 205.82098 210.38481 216.19608 220.24976 224.98206 233.91286 236.86581 245.87517">Increaseinnumberandsizeofintronicsequencesisa</tspan><tspan
         id="tspan140"
         y="11.452166"
         x="0 5.1203485 9.6945896 15.505855 20.012897 24.243572 29.310919 34.01672 37.16843 41.669796 46.894253 50.400887 56.070183 60.300861 66.671478 72.085236 77.726135 81.95681 84.756439 90.567703 97.342468 100.85762 106.66888 113.04613 117.77843 122.74072 127.33294 130.2859 135.95045 139.46561 142.41856 147.00606 154.54651 159.13873 164.07074 168.66296 174.47423 179.94476 185.04713 189.2778 194.23157 198.96387 202.39574 205.34869 211.23946 216.3598 220.93405 226.60335 231.33565 239.52914 244.26144 248.42966">generalfeatureduringtheevolutionofeukaryoticgenomes,</tspan><tspan
         id="tspan142"
         y="22.904331"
         x="0 7.3918524 10.204732 13.719884 23.3009 26.135546 31.946812 35.433571 39.664246 44.220505 50.031769 57.997177 63.221634 67.295197 71.525879 76.026291 81.837555 87.478462 91.12233 93.885048 99.696312 108.51164 111.66335 116.16471 124.15852 129.38298 134.42003 139.15233 144.79514 152.16521 156.89751 162.54031 167.27261 170.25017 175.35254 181.1638 186.18098 190.41167 193.89085 198.62315 206.53366 211.12589 218.04262 223.16296 227.7372 233.40649 238.13879 246.33231">withintronsaccountingforaboutone-quarterofgenome</tspan><tspan
         id="tspan144"
         y="34.356499"
         x="0 4.3347869 7.1429338 11.676477 18.651888 21.486534 29.6507 35.461964 41.102863 49.479034 54.482025 60.293289">sizeinhumans</tspan><tspan
         id="tspan146"
         y="34.356499"
         x="66.897682 70.0494 75.061852">[1]</tspan><tspan
         id="tspan148"
         y="34.356499"
         x="78.122704 83.168282 89.347717 94.572174 98.645737 103.63453 110.72068 113.67363 119.28141 122.92528 126.99127 131.72357 137.36636 140.20102 146.77702 151.1118 155.67752 160.77989 166.59116 171.15498 176.96625 181.019 185.7513 192.3008 197.52525 201.59882 208.68591 212.20107 216.43175 221.49908 227.31035 231.47667 235.70735 239.75346 242.5881 248.00186">.Largeintronicsequencesaretranscrip-</tspan><tspan
         id="tspan150"
         y="45.808662"
         x="0 3.6438711 6.4065876 11.138887 16.781683 22.006142 24.775484 27.728439 34.640434 36.609074 41.159653 46.280003 51.534748 56.267048 61.90984 66.105499 69.058456 74.042511 78.634735">tionally‘expensive’</tspan><tspan
         id="tspan152"
         y="45.808662"
         x="82.544563 85.549576 90.774033">[2]</tspan><tspan
         id="tspan154"
         y="45.808662"
         x="93.769577 98.305016 103.52947 109.19025 116.50355 120.0187 125.82996 130.3938 137.4241 142.83784 147.40169 151.59734 158.23013 163.45459 171.09915 175.69138 180.81172 184.30888 188.53957 193.55013 198.28242 202.33705 207.75081 210.55707 216.22636 221.45082 225.52438 232.55469 236.06984 241.2943 245.48048">;andtheyposeanextraordinarytask</tspan><tspan
         id="tspan156"
         y="57.26083"
         x="-0.00094646 3.6429245 9.864006 14.198792 19.445021 22.279669 25.232624 29.309973 32.144623 37.955887 44.560284 49.292583 51.760006 57.57127 61.624958 64.577911 69.10862 74.919884 78.973572 83.055649 87.251305 91.481987 96.038246 101.84951 107.0929 111.8252 115.87983 118.71448 124.52574 131.13014 134.77402 140.37137 146.66438 150.99918 153.80733 158.79611 164.60738 167.41364 173.2249 177.27858 182.38095 188.19221 192.2459 198.53891 203.76337 209.42415 216.39767 221.12997 225.1846 228.01926 233.1396 235.89948 243.26956 248.00186">tosplicingeffciency,renderingthesignifcanceandoriginof</tspan><tspan
         id="tspan158"
         y="68.712997"
         x="-0.00094646 4.3338404 10.145104 14.375781 25.6803 30.4126 35.532948 40.946697 46.171158 51.871685 56.206474 59.159428 63.891727 75.172585 86.001038 89.644905 94.869362 100.57084 104.21471 109.43917 112.39213 115.34508 119.73287 122.68582 128.49709 139.17883 144.40329 150.21455 154.82571 159.16049 162.80437 165.75732 170.48962 176.19867 184.41962 196.7785 201.00917 205.74147 211.55273 215.77017 218.72311 224.13687 228.86917 233.00426 238.22871 243.45317 246.40613">suchexpansionatantalizingquestion.Aconsiderable</tspan><tspan
         id="tspan160"
         y="80.165161"
         x="-0.00094646 5.4128046 9.976635 14.207311 17.686499 20.521145 25.253447 34.013878 38.746178 44.842327 48.486198 54.14035 61.907001 67.718269 73.359169 81.735336 86.738327 95.63884 100.75919 105.27664 111.08791 115.65173 124.0279 131.69612">portionofthehumangenome(</tspan></text>
<text
       id="text162"
       style="font-variant:normal;font-weight:normal;font-size:9.46459961px;font-family:AdvPS4731B1;-inkscape-font-specification:AdvPS4731B1;writing-mode:lr-tb;fill:#000000;fill-opacity:1;fill-rule:nonzero;stroke:none"
       transform="matrix(1,0,0,-1,180.5658,309.03171)"><tspan
         id="tspan164"
         y="0"
         x="0">O</tspan></text>
<text
       id="text166"
       style="font-variant:normal;font-weight:normal;font-size:9.46459961px;font-family:AdvPS88D1;-inkscape-font-specification:AdvPS88D1;writing-mode:lr-tb;fill:#000000;fill-opacity:1;fill-rule:nonzero;stroke:none"
       transform="matrix(1,0,0,-1,189.91967,309.03171)"><tspan
         id="tspan168"
         y="0"
         x="0 5.2244592 10.261519 18.145531 24.264395 27.21735 34.525913 38.756592 43.312847 51.689018 56.919159 61.511383 65.846169 70.411888 78.859047 83.591347 89.687492 95.990921 102.6133">45%)iscomposedofTEs</tspan><tspan
         id="tspan170"
         y="11.452166"
         x="-144.11368 -140.96196 -135.89368">[1]</tspan><tspan
         id="tspan172"
         y="11.452166"
         x="-130.56416 -125.3397 -119.67892 -112.08169 -108.43781 -102.78366 -95.866936 -91.636261 -87.080002 -84.127045 -77.271835 -72.539536 -67.29425 -63.650383 -57.996231 -53.263931 -49.152508 -42.178989 -37.844204 -33.335266 -28.110809 -22.450031 -17.857807 -12.046543 -7.9938011 -3.2615011 3.2312145 6.0658622 14.116451 18.312109 24.123373 29.197344 34.611095 37.361507 43.172771 50.400887 53.353844 59.018406 62.533558 66.764236 71.320496 79.371078 82.205727 86.938026 92.580826 97.701172 101.14156">andtheroleofthesesequencesinshapingintronlength</tspan><tspan
         id="tspan174"
         y="22.904331"
         x="-144.11368 -138.30241 -133.22844 -126.65244 -121.42798 -116.90106 -112.16876 -104.14562 -95.769447 -90.766464 -87.122589 -83.623528 -79.031303 -72.512085 -67.779785 -62.420929 -57.007179 -52.500137 -47.275677 -42.238617 -38.594746">hasbeenmatterofdebate</tspan><tspan
         id="tspan176"
         y="22.904331"
         x="-31.691267 -28.539555 -23.471262 -18.368896 -13.144437">[3–7]</tspan><tspan
         id="tspan178"
         y="22.904331"
         x="-10.147944">.</tspan></text>
<text
       id="text180"
       style="font-variant:normal;font-weight:normal;font-size:9.46459961px;font-family:AdvPSA35F;-inkscape-font-specification:AdvPSA35F;writing-mode:lr-tb;fill:#000000;fill-opacity:1;fill-rule:nonzero;stroke:none"
       transform="matrix(1,0,0,-1,45.80599,259.76468)"><tspan
         id="tspan182"
         y="0"
         x="0 5.8112645 14.513018 19.737476 25.54874 34.185188 43.148167 49.451588 58.619946 64.431213 69.65567 75.466934 80.199234 82.858788 86.502655 89.162209 94.386673 101.93279 107.15726 114.74503 122.79562 125.94733 131.75859 137.56985 142.30215 145.94603 148.60558 154.41684 163.04761 168.85887 174.89635 177.55589 183.36716 187.01103 190.65491 196.46617 205.11302 207.77258 212.99704 218.8083 224.61957 228.26344">TEandMCSdensitiesasafunctionofintronlength</tspan></text>
<text
       id="text184"
       style="font-variant:normal;font-weight:normal;font-size:9.46459961px;font-family:AdvPS88D1;-inkscape-font-specification:AdvPS88D1;writing-mode:lr-tb;fill:#000000;fill-opacity:1;fill-rule:nonzero;stroke:none"
       transform="matrix(1,0,0,-1,45.80599,248.31252)"><tspan
         id="tspan186"
         y="0"
         x="0 8.7869349 16.44001 20.670687 24.901363 29.633663 34.85812 38.501991 43.234291 51.589642 59.697018 65.508286 71.31955 79.695717 84.920174 93.656006 96.608955 102.42022 106.06409 110.29477 115.02707 123.76006 129.17381 134.39827 138.04214 143.2666 148.49106 153.71552 158.05031 165.7119 170.93636 178.97842 183.71072 188.83107 192.47495 196.70563 201.93008 206.16075 209.80463 212.75758 218.56885 226.65634 229.6093 235.42056 239.06444 243.79674 247.91573">Wecreatedahumanintrondatabasebyextractinginter-</tspan><tspan
         id="tspan188"
         y="11.452166"
         x="0 5.1203485 9.8526487 15.663913 18.616869 24.428133 35.26226 39.492935 44.225235 49.345585 52.298542 57.030842 62.842106 72.84903 76.00074 80.231415 84.963715 99.041359 106.72662 113.5222 120.31778 129.88176 136.67734 141.40964 144.56136 150.47673 155.20903 166.10846 170.33914 175.07144 178.0244 180.97736 185.70966 189.94032 193.5842 196.53716 201.26945 212.7661 217.4984 226.31563 231.43597 236.16827 241.97954 246.71184">veningregionsfromNCBIRefSeqcollectionofgenes</tspan><tspan
         id="tspan190"
         y="22.904331"
         x="0 3.1517117 6.3034234 11.035724 20.466251 28.842422 33.574722 37.805397 47.735657 53.149406 57.881706 61.525578 66.750038 69.702995 72.655945 76.990738 84.869072 89.203857 93.936157 103.86073 108.19552 114.00678 119.42054 124.83429 127.78725 132.51955 140.89572 145.62802 151.43929 155.08315 160.3076 164.53828 174.89635 180.31009 185.53456 189.17842 199.55731 204.28961 210.10088 213.05382 216.00677 221.81804 226.55034 229.70206 237.59743 246.32852">(formoredetails,seesupplementarydataonline).We</tspan><tspan
         id="tspan192"
         y="34.356499"
         x="0 2.9529552 5.9059105 14.282082 17.235037 20.878908 25.611208 34.298763 39.031063 44.842327 52.38372 57.608181 63.419445 68.643906 71.596863 76.717209 81.051994 84.004951 91.614487 95.258362 103.23607 106.18903 112.00029 115.64417 119.87484 124.60714 130.4184">limitedouranalysistointrons</tspan></text>
<text
       id="text194"
       style="font-variant:normal;font-weight:normal;font-size:9.46459961px;font-family:AdvPS4731B1;-inkscape-font-specification:AdvPS4731B1;writing-mode:lr-tb;fill:#000000;fill-opacity:1;fill-rule:nonzero;stroke:none"
       transform="matrix(1,0,0,-1,183.85286,213.95602)"><tspan
         id="tspan196"
         y="0"
         x="0">O</tspan></text>
<text
       id="text198"
       style="font-variant:normal;font-weight:normal;font-size:9.46459961px;font-family:AdvPS88D1;-inkscape-font-specification:AdvPS88D1;writing-mode:lr-tb;fill:#000000;fill-opacity:1;fill-rule:nonzero;stroke:none"
       transform="matrix(1,0,0,-1,193.3203,213.95602)"><tspan
         id="tspan200"
         y="0"
         x="0 7.5404468 13.152955 21.656898 26.881357 31.613657 35.844334 41.06879 46.880058 51.214844 59.243664 64.468124 69.881874 75.295624 78.248581 81.892448 84.845406 89.577705 95.388969 100.61343">1kbbecauseadditional</tspan><tspan
         id="tspan202"
         y="11.452166"
         x="-147.51526 -143.18047 -138.44817 -135.49521 -130.76291 -126.53223 -122.88837 -119.93541 -114.81506 -105.73283 -102.58112 -97.848824 -93.618141 -89.387466 -84.655167">selectiveforces</tspan><tspan
         id="tspan204"
         y="11.452166"
         x="-75.968559 -72.816849 -67.592384">[2]</tspan><tspan
         id="tspan206"
         y="11.452166"
         x="-64.459602 -57.486088 -52.261627 -46.450363 -36.736843 -31.323093 -28.370138 -23.24979 -18.51749 -14.286814 -9.9520273 -0.85086757 3.4839191 8.8976707 11.850626 14.803581 19.034258 21.987213 27.798477 32.918827 36.070538 40.301212 45.033512 50.153862 55.965126 58.918083 64.14254 67.786415 70.739365 75.471664 85.604469 89.835144 94.567444 100.37871">,anddiversesplicing-regulationcon-</tspan><tspan
         id="tspan208"
         y="22.904331"
         x="-147.51431 -143.17952 -139.53564 -135.30498 -130.08052 -127.12756 -121.3163 -117.67242">straints</tspan><tspan
         id="tspan210"
         y="22.904331"
         x="-109.75718 -106.60547 -101.38101">[8]</tspan><tspan
         id="tspan212"
         y="22.904331"
         x="-98.191437 -92.012001 -86.787544 -82.55687 -74.266823 -70.622955 -64.811691 -60.079388 -54.268124 -49.147774 -43.33651 -36.113129 -32.469257 -24.207607 -18.983149 -14.752472 -7.5404468 -2.8081467 6.576004 10.91079 16.722055 21.454355 25.685032 32.880966 35.833923 41.645187 45.289059 49.519733 54.252033 60.063297 64.398087 70.638092 79.42598 87.702766 93.116524 96.069473 100.40427">,arethoughttoactonshortintrons.Wedis-</tspan><tspan
         id="tspan214"
         y="34.356499"
         x="-147.51431 -143.28363 -138.05917 -133.82849 -128.41475 -123.68245 -113.44175 -107.63049 -103.39981 -99.065025 -90.650993 -87.698036 -81.886772 -78.242905 -74.012222 -69.279922 -63.468662 -54.311661 -49.0872 -44.3549 -40.124226 -34.899765 -29.088501 -24.753716 -15.25031 -11.606439 -5.7951746 -1.0628746 1.8900806 10.942024 13.894979 19.706244 23.93692 28.167597 32.899895 38.124355 42.459141 47.191441 57.373459 61.604134 66.336433 72.147697 75.791573 80.523872 86.335136 94.79081 97.743767">cardedfrstintronsbecausetheirincreasedcontentin</tspan><tspan
         id="tspan216"
         y="45.808662"
         x="-147.51431 -143.28363 -138.55133 -133.43098 -127.61972 -124.66676 -119.44231 -115.79843 -111.06613 -106.83546 -97.171158 -92.836365 -88.104065 -82.879608 -77.068344 -72.336044 -66.52478 -62.294106 -57.561806 -48.642365 -45.689411 -36.850422 -31.625961 -28.673006 -24.442329 -19.71003 -14.48557 -9.0718193 0.62277067 6.2352786 12.046543 16.778843 24.170696">regulatorysequencesisalreadyknown</tspan><tspan
         id="tspan218"
         y="45.808662"
         x="34.470074 37.621784 42.846245">[9]</tspan><tspan
         id="tspan220"
         y="45.808662"
         x="46.035816 53.235535 60.03112 63.182831 66.826698 71.558998 80.334579 83.978447 89.789711 94.522011 98.856804">.Afterthese</tspan><tspan
         id="tspan222"
         y="57.26083"
         x="-147.51337 -143.17857 -138.61285 -135.7782 -131.0459 -126.99127 -123.3474 -120.58469 -115.85239 -110.20959 -105.8748 -101.81922 -95.072853 -91.428986 -86.908691 -83.264816 -78.234383 -73.755737 -69.023438 -64.45771 -59.355347 -51.814899 -46.712532 -41.610168 -34.8638 -31.910845 -26.30307 -22.659199 -18.593206 -13.860907 -8.218112 -2.378454 1.8522222 6.4084806 12.077776 16.412563 19.901215 22.735863 26.379734 32.033886 35.677757 40.198048 47.11478 50.758648 56.412804 62.649025 68.062775 73.079964 76.723831 81.754265 86.978729 92.015785 96.350571 100.9163">selections,atotalof43967intronsconstitutedthedatabase.</tspan><tspan
         id="tspan224"
         y="68.769783"
         x="-135.55106 -126.76412 -117.35347 -112.12901 -106.31774 -101.09328 -98.140327 -93.019981 -88.486435 -83.754135 -73.644051 -67.34063 -55.898872 -52.945919 -47.134655 -43.490784 -38.758484 -33.638134 -29.407459 -24.182999 -20.539129 -17.586174 -12.853873 -2.3245058 0.82720602 5.0578823 9.7901821 15.014642 20.825907 25.558207 31.369471 35.600147 45.410206 48.561916 51.51487 54.174423 58.906723 66.273026 72.576447 84.074989 88.305664 93.037964 98.451714">WeanalyzedTEintegrationfrequency(i.e.TEcopy</tspan><tspan
         id="tspan226"
         y="80.221947"
         x="-147.51337 -141.7021 -136.0612 -127.68503 -122.62525 -118.03303">number</tspan></text>
<text
       id="text228"
       style="font-variant:normal;font-weight:normal;font-size:9.46459961px;font-family:AdvPS44A44B;-inkscape-font-specification:AdvPS44A44B;writing-mode:lr-tb;fill:#000000;fill-opacity:1;fill-rule:nonzero;stroke:none"
       transform="matrix(1,0,0,-1,79.426143,133.73407)"><tspan
         id="tspan230"
         y="0"
         x="0">O</tspan></text>
<text
       id="text232"
       style="font-variant:normal;font-weight:normal;font-size:9.46459961px;font-family:AdvPS88D1;-inkscape-font-specification:AdvPS88D1;writing-mode:lr-tb;fill:#000000;fill-opacity:1;fill-rule:nonzero;stroke:none"
       transform="matrix(1,0,0,-1,88.836794,133.73407)"><tspan
         id="tspan234"
         y="0"
         x="0 2.8346477 8.6459122 12.13267 16.363346 20.919605 26.588902 29.541857 35.77335 38.607998 43.340298 48.983089 54.103439 57.543823 63.355087 68.485847 71.320496 79.200722 85.011986 90.652885 99.029053 104.08883 111.91227 114.86523 120.52979 124.04494 128.27562 132.83188 138.64314 142.80946 147.51526 152.61761 155.76933 159.25041 163.98271 170.19244 175.60619 180.62431 184.855 188.33418 191.16882 194.8127 197.57542 202.30772">introniclength)inhumanintrons,afterpartition</tspan><tspan
         id="tspan236"
         y="11.452166"
         x="-43.029858 -40.0769 -32.201408 -29.248453 -23.583891 -20.068737 -15.838061 -11.281803 -3.288002 -0.45335433 4.2789454 9.9217405 14.910531 18.554401 26.419485 30.65016 33.449791 38.552155 42.886944 47.056099 51.788399 55.956608 60.719196 67.514778 75.402573 78.35553 83.963303 86.91626 90.426682 93.26133 98.363693 103.46606 106.41901 112.08358 116.31425 120.36037 125.09267 130.11176 134.44653 141.22319 148.61504 151.37114 155.015 162.93687 165.77153 171.58279 175.06955 179.30022 183.80064 191.79443 196.12923 198.88058 203.41412">inintronlengthclasses.Aninitialincreasewithintronsize</tspan><tspan
         id="tspan238"
         y="22.904331"
         x="-43.029858 -35.638004 -30.557407 -22.393244 -17.660944 -12.641867 -8.3070793 -3.7413564 0.48931983 5.4430914 10.035316 15.449066 21.884048 24.837004 29.424496 34.526859 39.940613 42.690079 48.501343 57.430244 60.9454 69.56292 78.633789 87.009964 92.069733 97.058525 100.01148 108.22675 114.03802 126.19814 130.42882 134.92923 139.15991 143.26282 147.85504 152.18982 157.43605 162.16835 167.81114 173.2249 175.97437 181.78563 190.65775 194.30161 202.84625">wasobserved,leadingtoamaximumcorrespondingtoa</tspan><tspan
         id="tspan240"
         y="34.356499"
         x="-43.029858 -40.0769 -35.48941 -29.820116 -24.699766 -21.202597 -13.435946 -10.482991 -4.818428 -1.3032755 3.4290247 7.4836593 12.604008 17.631603 22.620394 27.212618 32.371773 37.474136 42.698597 47.735657 52.960117 57.997177 63.221634 68.258698 73.483154 80.901505 86.003876 91.417625 95.981453 103.37331 109.02084 113.75314 117.80777 122.39999 127.62445 133.85216 141.05188 145.38667 148.87532 153.60762 158.62669 164.04045 171.04236 176.45612 181.01994 185.25061 189.29674 194.02904 199.1049 203.30055">lengthintervalof5314–9035bp,whereasasteadydecrease</tspan><tspan
         id="tspan242"
         y="45.808662"
         x="-43.029858 -35.638004 -30.413546 -23.357687 -18.625387 -13.400928 -9.0661402 -4.3338404 -0.10316414 5.0171843 9.7494841 17.857807 21.00952 25.741819 32.711552 35.664505 40.396805 46.208069 51.328419 56.060719 62.98502 65.937973 71.749237 75.393112 79.623787 84.356087 90.167351 97.226997">wasobservedforlongerintrons(</tspan><tspan
         id="tspan244"
         y="45.808662"
         x="100.40331 106.70674 109.6597 114.78004 120.59131 124.82198 132.26399">Figure1</tspan><tspan
         id="tspan246"
         y="45.808662"
         x="137.48088 142.70535 145.85706 151.20078 154.84464 160.6559 168.09508 176.47125 181.20355 186.42801 194.96698 201.2704">a);themeanTE</tspan><tspan
         id="tspan248"
         y="57.26083"
         x="-43.028912 -40.075954 -35.343655 -29.532391 -24.412043 -20.768171 -11.621582 -8.6686268 -2.8573627 0.095592462 3.7394636 6.6924186 11.916878 14.869833 17.822788 26.249121 29.202076 35.01334 39.244019 43.474693 48.206993 53.431454 57.766239 62.498539 71.205971 78.597824 81.550781 85.194649 94.33651 97.289459 103.10073 106.7446 110.97527 115.70757 124.78034 127.73329 132.46559 138.27686 143.3972 147.04108 156.18767 161.99893 167.8102 171.45407 174.40703 180.67921 184.9099 189.6422 194.86665 199.09732 204.90858">lengthinitiallyincreasedwithintronlengthuntilreach-</tspan><tspan
         id="tspan250"
         y="68.712997"
         x="-43.028912 -40.075954 -34.26469 -25.00074 -15.64593 -11.311144 -7.6672726 -2.4428132 2.781646 5.734601 14.62754 19.747889 24.972347 27.925303 33.736568 42.576504 47.308804">ingastablevalueof</tspan></text>
<text
       id="text252"
       style="font-variant:normal;font-weight:normal;font-size:9.46459961px;font-family:AdvPS3FDD77;-inkscape-font-specification:AdvPS3FDD77;writing-mode:lr-tb;fill:#000000;fill-opacity:1;fill-rule:nonzero;stroke:none"
       transform="matrix(1,0,0,-1,143.43334,65.021075)"><tspan
         id="tspan254"
         y="0"
         x="0">w</tspan></text>
<text
       id="text256"
       style="font-variant:normal;font-weight:normal;font-size:9.46459961px;font-family:AdvPS88D1;-inkscape-font-specification:AdvPS88D1;writing-mode:lr-tb;fill:#000000;fill-opacity:1;fill-rule:nonzero;stroke:none"
       transform="matrix(1,0,0,-1,152.90078,65.021075)"><tspan
         id="tspan258"
         y="0"
         x="0 5.2244592 10.448918 18.02817 23.252628 32.768337">300bp(</tspan><tspan
         id="tspan260"
         y="0"
         x="35.94371 42.247135 45.200089 50.320438 56.131702 60.362381 69.222191">Figure1</tspan><tspan
         id="tspan262"
         y="0"
         x="74.438133 79.851883 83.003593 89.802017 93.644646 103.57869 106.53165 109.4846 115.29587 124.15757 131.54942 134.50238 138.14626">d).Inlinewith</tspan><tspan
         id="tspan264"
         y="-488.46609"
         x="161.91565 165.55951 171.37077 176.10307 180.43787 189.6384 195.44966 201.26094 206.67468 209.62764 215.4389 220.55925 224.89404 231.98776 235.63162 241.44289 250.63965 256.05341 260.78571 265.01636 268.66025 271.61319 276.34549 286.63919 291.37149 298.99808 302.64194 308.45322 317.59317 320.54611 326.35739 330.00125 334.23193 338.96423 349.28442 352.92831 358.73956 363.96402 372.0184 374.97137 383.81036 386.96207 391.19275 395.92505 405.06973 409.80203">thesefndings,theportionoftheintronthatisfreeof</tspan><tspan
         id="tspan266"
         y="-477.01395"
         x="161.91565 168.21907 175.01465 181.70139 184.8531 189.08379 193.81609 198.15086 201.10382 206.51758 212.32884 217.5533 220.50626 226.03453 230.2652 234.9975 240.22195 244.45264 250.2639 254.9962 261.7511 269.29153 277.66769 280.62067 286.43192 289.38489 297.76105 303.57233 314.36197 317.51367 322.24597 328.81818 332.46207 338.27332 345.37271 350.59717 355.82162 361.04608 366.27057 371.49503 376.71948 384.3205 389.54495 394.76941 402.34866 407.57312">TEs(residual)reachesaminimumforthe9036–14906bp</tspan><tspan
         id="tspan268"
         y="-465.56177"
         x="161.91565 164.86861 169.60091 175.41217 180.53252 184.17638 192.86961 195.82257 201.63383 205.27771 210.01001 214.24069 219.36104 224.58549 230.3428 235.56728 241.37854 249.6752 253.31908 259.13034 263.86264 272.52179 276.8566 280.50046 285.23276 290.45721 295.87097 298.82391 301.77689 309.71201 312.66495 318.47623 322.70691 326.93756 331.66986 336.89432 341.22913 345.96143 353.13843">lengthintervalandthensteadilyincreases(</tspan><tspan
         id="tspan270"
         y="-465.56177"
         x="356.3157 362.61911 365.57208 370.69241 376.50369 380.73434 388.34674">Figure1</tspan><tspan
         id="tspan272"
         y="-465.56177"
         x="393.56268 397.79337 400.94507">c).</tspan><tspan
         id="tspan274"
         y="-454.10962"
         x="173.87794 182.66489 191.67897 196.01376 201.42751 206.15981 210.39049 216.20175 219.15471 224.37917 228.02304 232.75534 242.47548 246.11935 251.93062 257.15506 265.09589 268.73975 274.55099 277.50397 286.12906 291.94031 297.75159 303.16534 306.11829 311.92957 321.39133 329.76749 332.72043 337.84079 343.65207 351.608 356.83246 365.83801 371.25177 377.06305 386.13391 389.77777 398.77673 402.42059 408.23187">Wespeculatedthatthisfndingmightbeduetothe</tspan><tspan
         id="tspan276"
         y="-442.65744"
         x="161.91565 167.72691 172.45921 177.19151 185.8961 190.6284 197.00754 202.4213 206.65196 211.38426 215.71906 220.45135 224.68204 229.80238 232.75534 238.5666 247.00996 251.24065 255.97295 260.30774 263.26068 268.67444 274.48572 279.71017 285.90097 288.85391 294.66519 298.30905 302.53973 307.27203 316.40158 319.35452 324.08682 329.8981 335.01843 338.66232 347.69629 350.84799 355.07867 359.81097 371.50732 377.81073 387.83469 390.78766 396.59891 400.93372 405.66602 409.89667">needofpreservingresidualintronlengthfromTEinser-</tspan><tspan
         id="tspan278"
         y="-431.20529"
         x="161.91565 165.55951 168.51247 173.24477 179.05603 184.59282 193.37976 200.97699 204.62086 210.43213 215.16443 219.39511 224.12741 227.27911 232.01141 236.2421 243.83649 248.17128 252.90358 258.12802 262.3587 266.58939 272.40067 277.13297 285.44855 288.60025 293.33255 300.41492 303.36789 309.17914 312.823 317.05368 321.78598 327.59726 330.5502 337.6619 346.03809 351.84933 354.80231 358.44617 361.39914 365.73392 371.14767 375.87997 380.11063 383.0636 387.7959 395.03442 399.26511 403.99741 409.80865">tion.Wethereforesearchedforintronicmultispeciescon-</tspan><tspan
         id="tspan280"
         y="-419.75311"
         x="161.91565 166.39429 171.21272 175.54655 180.81929 185.65475 197.33313 201.77107 206.64629 211.97391 217.92619 222.76166 228.7149 233.04874 237.8842 248.4855 251.7735 260.83963 267.7384 273.75693 278.23557 281.52359 290.4241 293.48022 305.55609 311.073 316.45837 320.79221 324.59036 327.64648 331.98032 337.93353 340.99533 346.32297 350.00754 358.90805 367.97891 374.87766 380.94351 391.48804 398.97168 403.84692 408.21198">servedsequences(MCSs);inparticular,MCSswere</tspan><tspan
         id="tspan282"
         y="-408.30096"
         x="161.91565 166.14632 170.87862 174.52249 178.75317 181.70612 186.43842 191.55878 196.29108 207.21323 213.02449 217.35927 220.31223 226.12349 236.69356 242.1073 247.91858 253.14304 257.47781 261.12167 267.91727 272.64957 278.46085 288.2832 293.69696 297.92761 302.65991 308.07367 311.02664 315.25729 318.90118 321.85413 326.58643 332.39771">retrievedusingphastConspredictions</tspan><tspan
         id="tspan284"
         y="-408.30096"
         x="342.25601 345.40775 350.6322 355.85666">[10]</tspan><tspan
         id="tspan286"
         y="-408.30096"
         x="358.98093 367.08829 374.48016 380.29141 383.24435 387.47504 398.77957 404.00403 408.23471">,whichare</tspan><tspan
         id="tspan288"
         y="-396.84879"
         x="161.9166 167.14105 172.36551 176.7003 181.4326 189.46899 194.20129 202.67873 210.55896 215.9727 221.78397 226.90433 229.85727 234.58957 239.70993 244.44223 250.25349 254.98579 258.62967 261.58261 268.49841 274.30966 277.2626 282.67636 288.09012 292.82242 301.26672 310.22971 315.45416 319.68484 325.29736 330.02966 337.83322 346.20938 350.94168 356.35544 361.08774 366.68985 371.91431 377.72556 385.79507 391.20883 395.94113 400.17181 403.12476 408.24512">basedonaphylogenetichiddenMarkovmodelandderive</tspan><tspan
         id="tspan290"
         y="-385.39661"
         x="161.9166 165.0683 169.29898 174.03128 188.39192 193.12422 196.07718 201.19753 207.00879 216.62482 220.95961 226.37335 231.10565 235.33633 238.28929 243.02159 253.30487 261.68106 267.49231 270.44525 274.08914 277.04208 287.54684 292.7713 295.72427 298.67722 303.79758 309.60883 317.98502 322.71732 328.52856 332.17245 336.50723 345.14651 351.94211 356.67441 360.90506 366.12955 371.9408 376.27557 386.98572 395.9487 402.74429 408.65967">fromeightspeciesmultizalignments.BecauseMCSs</tspan><tspan
         id="tspan292"
         y="-373.94446"
         x="161.9166 167.14105 171.37172 178.58376 182.91853 187.65083 192.87531 197.10597 201.33665 207.14792 211.88022 219.79924 222.95096 227.68326 234.42584 239.6503 242.802 246.44588 251.17818 257.89615 266.27234 271.4968 275.83157 281.44409 284.39703 290.20828 297.80743 302.03809 306.77042 312.18414 316.91644 320.56033 323.51328 327.15714 330.11011 335.23044 342.48129 346.81607 351.54837 356.77283 362.58411 367.31641 373.12766 377.35834 382.09064 386.42542 391.577 395.22089 401.03214 405.76443 408.71741">aresearchedforaftermaskingrepetitivesequences,their</tspan><tspan
         id="tspan294"
         y="-362.43549"
         x="161.9166 167.33034 172.06264 177.8739 182.20869 185.16165 188.80553 196.38571 199.53743 202.49039 205.14993 209.88223 214.98082 219.21149 223.94379 229.75505 234.08984 238.82214 243.05283 248.17317 252.90547 260.78854 266.013 271.23746 275.57224 280.30453 287.09351 292.50726 297.23956 303.93103 306.88397 311.61627 317.42755 322.54788 326.19177 332.00302 337.60608 343.01981 347.25049 351.98279 357.79407 360.74701 367.93631 375.32819 380.55264 387.38229 391.61298 396.83743 399.79037 404.02106 409.83234">density(i.e.conservedbasesperlength)proflewascalcu-</tspan><tspan
         id="tspan296"
         y="-350.98334"
         x="161.9166 164.86955 170.09401 173.73787 178.47017 188.16476 192.89706 203.01851 207.24919 211.98149 216.31627 219.26923 224.68298 230.49425 235.7187 242.98657 245.93953 251.75079 255.39465 259.62534 264.35764 274.50748 278.84225 281.79523 286.32877 295.31351 300.72726 305.45956 309.69022 313.33411 316.28705 321.01935 326.83063 333.80792 340.11136 345.92261 354.95468 363.91766 370.71323 380.97665 386.39041 391.12271 396.93396 401.26877 404.22171 407.86557">latedonresidualintronsizeportion.TheMCSdensity</tspan><tspan
         id="tspan298"
         y="-339.53116"
         x="161.9166 166.30533 172.27464 176.66339 181.94179 192.99644 197.4751 203.44441 208.33478 215.88469 220.77504 232.51021 244.01915 248.51201 252.31393 257.20428 262.58682 268.15863 279.61078 282.7218 288.69113 293.07986 297.4686 302.35895 307.74146 312.23431 323.28897 330.83887 333.94989 337.75183 349.88449 352.99551 358.96484 362.76675 367.15549 372.04587 384.12173 387.23276 392.12311 398.09244 403.37085 407.17276">curveshowedasteadyincreasewithintronlength</tspan><tspan
         id="tspan300"
         y="-328.07901"
         x="161.9166">(</tspan><tspan
         id="tspan302"
         y="-328.07901"
         x="165.14781 171.5544 174.6162 179.73654 185.67084 190.03592 200.92116">Figure1</tspan><tspan
         id="tspan304"
         y="-328.07901"
         x="206.19388 211.52339 214.75461 223.59834 231.082 234.03494 237.82837 249.79066 258.86154 265.7215 277.79736 286.24454 291.0639 296.3934 308.35571 311.41751 316.23596 322.13239 327.34833 330.99222 343.052 348.27646 351.38559 355.80743 366.69269 371.00098 375.82034 381.7168 386.13864 389.88 395.10446 401.10501 404.7489 407.85138">b),withMCSmeanlengthalsoconstantly</tspan><tspan
         id="tspan306"
         y="-316.62683"
         x="161.9166 164.86955 170.68082 174.91148 179.14217 183.87447 189.09892 193.43372 196.38666 202.19792 211.46567">increasing(</tspan><tspan
         id="tspan308"
         y="-316.62683"
         x="214.64104 220.94446 223.89742 229.01776 234.82903 239.05971 247.91953">Figure1</tspan><tspan
         id="tspan310"
         y="-316.62683"
         x="253.13545 258.54922 261.70093 268.55612 274.85956 280.67081 285.40311 289.73792 298.60339 302.24728 306.47794 311.21024 317.02151 322.43527 330.9184 338.31024 343.04254 347.27322 356.14627 361.95755 366.68985 374.45837 379.19067 384.41513 388.74994 393.48224 397.71289 402.83325 407.56555">d).Thesetrendswerenotobserved</tspan><tspan
         id="tspan312"
         y="-305.17468"
         x="161.9166 169.30844 175.11971 179.85201 189.4122 195.22346 201.03473 209.4109 214.63536 224.16432 229.28467 234.01697 239.82823 244.56053 252.93671 255.88966 263.90521 268.13589 273.36035 279.17163 284.58539 289.31769 301.43521 305.76999 310.50229 315.72675 321.53802 326.27032 332.08157 336.31226 341.04456 349.11313 356.50497 361.23727 365.46796 373.94446 379.16891 384.98016 390.20465 393.15759 398.27795 402.81149 407.54379">whenhumangenomicrandomsequenceswereanalyzed</tspan><tspan
         id="tspan314"
         y="-293.7225"
         x="161.9166">(</tspan><tspan
         id="tspan316"
         y="-293.7225"
         x="165.09102 171.39444 174.3474 179.46774 185.27901 189.50969 196.61192">Figure1</tspan><tspan
         id="tspan318"
         y="-293.7225"
         x="201.82787 207.05232 212.27678 217.69054 220.84224 225.86511 229.70773 235.519 240.93275 245.66505 250.39735 255.8111 260.7876 266.01205 271.8233 277.04776 280.00073 285.12106 289.45587 292.40881 299.11163 303.84393 309.37317 313.70795 316.66092 322.47217 327.59253 330.54547 337.60608 340.55902 346.3703 350.01416 354.24484 358.97714 364.78839 371.50827 374.46121 379.87497 384.60727 390.41855 394.06241 397.01535 402.82663 407.55893">a–d).Indeed,analysisofsingleintronsidentifed</tspan><tspan
         id="tspan320"
         y="-282.27036"
         x="161.91565 171.78059 176.11539 179.06834 184.18869 189.99995 192.95291 198.76418 202.99484 208.21931 214.03058 222.34996 227.7637 232.496 236.8308 239.78375 243.42761 246.38057 251.50092 260.90115 266.12561 270.46042 274.7952 279.5275 283.75818 286.71112 291.93558 295.57947 298.53241 303.26471 313.73825 318.96271 323.69501 327.33887 334.73071 339.46301 344.19531 354.61301 363.57599 370.37155 380.97476 386.38852 391.12082 396.93207 401.26685 404.21982 407.86368">asignifcantpositiveassociationbetweenMCSdensity</tspan><tspan
         id="tspan322"
         y="-270.81818"
         x="161.91565 167.14011 172.95137 181.24803 185.47871 190.21101 194.54581 197.49875 202.91251 208.72377 213.94823 219.74246 222.69542 228.50668 232.15054 236.38123 241.11353 249.78972 252.74268 257.47498 263.28625 268.40659 272.05048 280.74368 283.89542 288.1261 292.8584 297.08905 301.31973 306.05203 309.005 314.22946 317.87332 320.82626 325.55859 334.26129 338.49194 343.22424 347.95654 350.58865 356.39993 360.63062 363.58356 368.31586 374.12711">andresidualintronlength(correlationcoeffcient</tspan></text>
<text
       id="text324"
       style="font-variant:normal;font-weight:normal;font-size:9.46459961px;font-family:AdvPS3FDD77;-inkscape-font-specification:AdvPS3FDD77;writing-mode:lr-tb;fill:#000000;fill-opacity:1;fill-rule:nonzero;stroke:none"
       transform="matrix(1,0,0,-1,530.703,335.83925)"><tspan
         id="tspan326"
         y="0"
         x="0">Z</tspan></text>
<text
       id="text328"
       style="font-variant:normal;font-weight:normal;font-size:9.46459961px;font-family:AdvPS88D1;-inkscape-font-specification:AdvPS88D1;writing-mode:lr-tb;fill:#000000;fill-opacity:1;fill-rule:nonzero;stroke:none"
       transform="matrix(1,0,0,-1,540.17044,335.83925)"><tspan
         id="tspan330"
         y="0"
         x="0 5.2244592 7.8840117 12.586025 17.810484 23.034943">0.117;</tspan></text>
<text
       id="text332"
       style="font-variant:normal;font-weight:normal;font-size:9.46459961px;font-family:AdvPS88D4;-inkscape-font-specification:AdvPS88D4;writing-mode:lr-tb;fill:#000000;fill-opacity:1;fill-rule:nonzero;stroke:none"
       transform="matrix(1,0,0,-1,314.81642,324.38708)"><tspan
         id="tspan334"
         y="0"
         x="0">P</tspan></text>
<text
       id="text336"
       style="font-variant:normal;font-weight:normal;font-size:9.46459961px;font-family:AdvPS4731B1;-inkscape-font-specification:AdvPS4731B1;writing-mode:lr-tb;fill:#000000;fill-opacity:1;fill-rule:nonzero;stroke:none"
       transform="matrix(1,0,0,-1,321.10944,324.38708)"><tspan
         id="tspan338"
         y="0"
         x="0">!</tspan></text>
<text
       id="text340"
       style="font-variant:normal;font-weight:normal;font-size:9.46459961px;font-family:AdvPS88D1;-inkscape-font-specification:AdvPS88D1;writing-mode:lr-tb;fill:#000000;fill-opacity:1;fill-rule:nonzero;stroke:none"
       transform="matrix(1,0,0,-1,330.57688,324.38708)"><tspan
         id="tspan342"
         y="0"
         x="0 5.2244592">10</tspan></text>
<text
       id="text344"
       style="font-variant:normal;font-weight:normal;font-size:7.09819984px;font-family:AdvPS44A44B;-inkscape-font-specification:AdvPS44A44B;writing-mode:lr-tb;fill:#000000;fill-opacity:1;fill-rule:nonzero;stroke:none"
       transform="matrix(1,0,0,-0.88883097,341.0078,328.5921)"><tspan
         id="tspan346"
         y="0"
         x="0">K</tspan></text>
<text
       id="text348"
       style="font-variant:normal;font-weight:normal;font-size:7.09819984px;font-family:AdvPS88D1;-inkscape-font-specification:AdvPS88D1;writing-mode:lr-tb;fill:#000000;fill-opacity:1;fill-rule:nonzero;stroke:none"
       transform="matrix(1,0,0,-0.88883097,348.15143,328.5921)"><tspan
         id="tspan350"
         y="0"
         x="0 3.9189162">12</tspan></text>
<text
       id="text352"
       style="font-variant:normal;font-weight:normal;font-size:9.46459961px;font-family:AdvPS88D1;-inkscape-font-specification:AdvPS88D1;writing-mode:lr-tb;fill:#000000;fill-opacity:1;fill-rule:nonzero;stroke:none"
       transform="matrix(1,0,0,-1,355.9747,324.3968)"><tspan
         id="tspan354"
         y="0"
         x="0 3.1517117 11.168228 18.560081 24.371346 29.103645 33.33432 38.06662 43.29108 53.007439 63.665524 69.476791 74.209091 79.329437 84.553894 88.197769 91.150726 96.271072 106.35466 110.58533 115.31763 119.54831 123.77898 128.51129 131.46423 136.68871 140.33257 143.28552 148.01782 159.24852 162.40024 166.63091 171.3632 175.59389 179.82455 184.55685 187.50981 192.73427 196.37814 199.3311 204.0634">),whereasanegativecorrelation(correlation</tspan><tspan
         id="tspan356"
         y="11.452166"
         x="-41.158707 -36.928028 -32.195728 -27.46343 -24.774536 -18.963272 -14.732596 -11.779641 -7.0473413 -1.2360767">coeffcient</tspan></text>
<text
       id="text358"
       style="font-variant:normal;font-weight:normal;font-size:9.46459961px;font-family:AdvPS3FDD77;-inkscape-font-specification:AdvPS3FDD77;writing-mode:lr-tb;fill:#000000;fill-opacity:1;fill-rule:nonzero;stroke:none"
       transform="matrix(1,0,0,-1,358.35599,312.94463)"><tspan
         id="tspan360"
         y="0"
         x="0">Z</tspan></text>
<text
       id="text362"
       style="font-variant:normal;font-weight:normal;font-size:9.46459961px;font-family:AdvPS44A44B;-inkscape-font-specification:AdvPS44A44B;writing-mode:lr-tb;fill:#000000;fill-opacity:1;fill-rule:nonzero;stroke:none"
       transform="matrix(1,0,0,-1,367.82343,312.94463)"><tspan
         id="tspan364"
         y="0"
         x="0">K</tspan></text>
<text
       id="text366"
       style="font-variant:normal;font-weight:normal;font-size:9.46459961px;font-family:AdvPS88D1;-inkscape-font-specification:AdvPS88D1;writing-mode:lr-tb;fill:#000000;fill-opacity:1;fill-rule:nonzero;stroke:none"
       transform="matrix(1,0,0,-1,377.29087,312.94463)"><tspan
         id="tspan368"
         y="0"
         x="0 5.2244592 7.8840117 13.108471 18.33293 23.55739">0.168,</tspan></text>
<text
       id="text370"
       style="font-variant:normal;font-weight:normal;font-size:9.46459961px;font-family:AdvPS88D4;-inkscape-font-specification:AdvPS88D4;writing-mode:lr-tb;fill:#000000;fill-opacity:1;fill-rule:nonzero;stroke:none"
       transform="matrix(1,0,0,-1,407.28135,312.94463)"><tspan
         id="tspan372"
         y="0"
         x="0">P</tspan></text>
<text
       id="text374"
       style="font-variant:normal;font-weight:normal;font-size:9.46459961px;font-family:AdvPS4731B1;-inkscape-font-specification:AdvPS4731B1;writing-mode:lr-tb;fill:#000000;fill-opacity:1;fill-rule:nonzero;stroke:none"
       transform="matrix(1,0,0,-1,413.57436,312.94463)"><tspan
         id="tspan376"
         y="0"
         x="0">!</tspan></text>
<text
       id="text378"
       style="font-variant:normal;font-weight:normal;font-size:9.46459961px;font-family:AdvPS88D1;-inkscape-font-specification:AdvPS88D1;writing-mode:lr-tb;fill:#000000;fill-opacity:1;fill-rule:nonzero;stroke:none"
       transform="matrix(1,0,0,-1,423.0418,312.94463)"><tspan
         id="tspan380"
         y="0"
         x="0 5.2244592">10</tspan></text>
<text
       id="text382"
       style="font-variant:normal;font-weight:normal;font-size:7.09819984px;font-family:AdvPS44A44B;-inkscape-font-specification:AdvPS44A44B;writing-mode:lr-tb;fill:#000000;fill-opacity:1;fill-rule:nonzero;stroke:none"
       transform="matrix(1,0,0,-0.88883097,433.5306,317.1401)"><tspan
         id="tspan384"
         y="0"
         x="0">K</tspan></text>
<text
       id="text386"
       style="font-variant:normal;font-weight:normal;font-size:7.09819984px;font-family:AdvPS88D1;-inkscape-font-specification:AdvPS88D1;writing-mode:lr-tb;fill:#000000;fill-opacity:1;fill-rule:nonzero;stroke:none"
       transform="matrix(1,0,0,-0.88883097,440.61744,317.1401)"><tspan
         id="tspan388"
         y="0"
         x="0 3.9189162">12</tspan></text>
<text
       id="text390"
       style="font-variant:normal;font-weight:normal;font-size:9.46459961px;font-family:AdvPS88D1;-inkscape-font-specification:AdvPS88D1;writing-mode:lr-tb;fill:#000000;fill-opacity:1;fill-rule:nonzero;stroke:none"
       transform="matrix(1,0,0,-1,448.4409,312.9448)"><tspan
         id="tspan392"
         y="0"
         x="0 6.9167295 14.308582 19.533041 27.665972 33.079723 37.812023 41.455894 46.188194 50.418869 54.06274 58.79504 68.030602 73.255058 82.147049 86.377724 91.110023 99.486198 104.89995 110.1244 114.35508">)wasdetectedbycompar-</tspan><tspan
         id="tspan394"
         y="11.508954"
         x="-133.62502 -130.67206 -124.86079 -116.90106 -110.59763 -100.97025 -97.818535 -93.58786 -88.85556 -83.631096 -77.819832 -73.087532 -67.276268 -63.045593 -55.0499 -47.658047 -44.705093 -41.061222 -32.372719 -23.409742 -16.614159 -7.8811727 -2.4674213 2.2648787 8.0761433 12.41093 15.363885 19.007755 23.129589">ingTEfrequencywithMCSdensity.</tspan></text>
<text
       id="text396"
       style="font-variant:normal;font-weight:normal;font-size:9.46459961px;font-family:AdvPSA35F;-inkscape-font-specification:AdvPSA35F;writing-mode:lr-tb;fill:#000000;fill-opacity:1;fill-rule:nonzero;stroke:none"
       transform="matrix(1,0,0,-1,314.81589,269.4048)"><tspan
         id="tspan398"
         y="0"
         x="0 8.9629765 15.266399 24.434757 30.246021 35.470482 40.694942 44.33881 46.998363 52.809628 61.454594 64.114143 71.659325 75.3032 80.527657 85.259956 91.07122 96.882484 102.69375 107.42605 110.0856 115.89687 118.55642 126.65054 129.80226 135.61353 142.12801 145.77188 151.58315 159.64603 162.30559 168.11685 172.84915 176.49303 181.71748 186.94194 191.67424 199.72766 202.38722">MCSfxationisresponsiblefortheincreasein</tspan><tspan
         id="tspan400"
         y="11.452166"
         x="0 2.6595526 8.4708166 12.114688 15.758559 21.569824 30.216682 32.876236 38.100693 43.911957 49.723221 53.367092">intronlength</tspan></text>
<text
       id="text402"
       style="font-variant:normal;font-weight:normal;font-size:9.46459961px;font-family:AdvPS88D1;-inkscape-font-specification:AdvPS88D1;writing-mode:lr-tb;fill:#000000;fill-opacity:1;fill-rule:nonzero;stroke:none"
       transform="matrix(1,0,0,-1,314.81589,246.50047)"><tspan
         id="tspan404"
         y="0"
         x="0 7.3918524 12.512201 17.244501 21.475178 26.699636 29.652592 32.605549 40.251999 43.89587 49.707134 59.470814 64.884567 70.109024 73.752899 83.962357 88.193039 92.925339 98.339088 103.07139 107.30206 110.94593 115.67824 126.14135 131.95261 136.68492 140.91559 150.63289 154.96768 160.77895 165.89929 171.01964 175.75194 180.08673 188.7298 192.37367 198.18494 203.40939 212.08749 215.2392 218.19215 226.31752 230.54819 235.28049 238.92436 243.15504 247.88734">Overall,thedatareportedheresuggestthat(i)retro-</tspan><tspan
         id="tspan406"
         y="11.452166"
         x="0 5.4137511 10.146051 14.480838 17.433794 21.077663 24.030619 28.762918 34.574184 41.725636 50.101807 53.05476 58.17511 63.986374 70.411888 75.636353 83.167336 87.39801 92.13031 96.465096 100.10897 104.33965 109.5641 112.51706 118.32832 123.06062 131.29956 134.45126 138.68195 143.41425 154.60045 160.01421 162.96716 167.30194 171.53262 177.34389 182.75764 186.4015 189.35446 195.16573 203.12924 212.09222 218.8878 224.80318 231.92908 237.15353 242.9648 248.37856">positionsmightberestrainedfromdisruptingMCSsand;</tspan><tspan
         id="tspan408"
         y="22.904331"
         x="0 3.1517117 6.1046672 9.057622 15.079947 24.042923 29.958298 36.75388 43.936565 52.312737 55.265694 60.38604 66.197304 72.679611 78.490875 83.715332 88.835686 96.377075 104.48445 108.71513 113.44743 116.40038 123.93042 126.88338 135.552 138.50496 144.31622 147.9601 152.19077 156.92307 165.59927 170.71962 174.95029 179.68259 187.07445 190.71832 196.52959">(ii)MSCsmighthavearoleinintrongrowth.</tspan><tspan
         id="tspan410"
         y="34.356499"
         x="11.962308 17.461241 25.511829 30.632177 35.856636 38.809593 47.961861 51.113571 56.924835 61.155514 64.799385 70.610649 75.342949 82.884338 85.837296 91.64856 95.983345 98.936302 104.05665 109.86792 113.51179 119.5644 126.95625 134.98508 139.31985 142.96373 148.77499 154.18875 157.14169 161.87399 170.64485 179.60782 186.4034 195.58975 201.40102 206.52136 211.74582 215.38969 218.34264 223.07494 232.21301 236.94531 242.06566 246.79796">Togainfurtherinsight,westudiedMCSfxationover</tspan><tspan
         id="tspan412"
         y="45.808662"
         x="0 4.7322998 9.8526487 14.584949 17.537905 23.349169 26.99304 29.945995 34.678295 40.489559 45.71402 49.944695 57.542873 61.186745 64.139702 72.515869 77.248169 81.582962 86.739273 89.69223 97.964287 103.37804 108.6025 112.83318 116.47704 119.43 123.66068 129.47194 132.4249 137.64935 141.22035 146.32272 153.71457 160.89252 166.11697 171.92824 177.15271 180.10565 185.22601 189.75955 194.49185 202.39101 206.03488 211.84615 219.05817 224.47192 229.20422 235.01549 239.35027 242.30322 245.9471">evolutionarytimes;inparticular,weanalyzedthedensity</tspan><tspan
         id="tspan414"
         y="57.26083"
         x="0 5.4137511 8.3667068 12.701493 16.345364 20.57604 23.528996 28.753454 34.56472 38.208591 41.161545 45.893845 54.821804 59.554104 65.820618 74.783592 81.57917 87.494545 94.903435 98.54731 104.35857 109.58303 116.33318 122.14445 127.36891 132.48926 140.31364 145.5381 150.2704 155.0027 163.89754 169.7088 174.82915 179.56145 188.10513 193.32961 196.48131 200.12518 204.85748 212.19917 216.93147 224.27505 229.49951 234.23181 237.38353 242.11583 246.3465">distributionofMCSsthathavebeenfxedafterorbefore</tspan><tspan
         id="tspan416"
         y="68.712997"
         x="0 3.6438711 9.4551353 18.651888 23.876347 26.829302 31.059978 36.473728 41.698189 50.07436 55.298817 63.674988 72.051163 77.27562 80.228577 83.181534 88.405991 98.701584 103.03637 108.45012 111.40308 114.35603 117.9999 125.17691 129.01953 139.29335 144.51782 149.25012 152.89398 163.16118 167.39186 172.61632 176.95111 181.68341 186.01819 193.15166 196.79553 202.6068 207.3391 210.29205 219.06006 224.47382 229.20612 235.01738 239.35216 242.30511 245.94899">thebird–mammailansplit.Inbothcases,theirdensity</tspan><tspan
         id="tspan418"
         y="80.221947"
         x="0 5.4137511 9.4674397 14.199739 19.842533 22.677181 29.196398 32.149353 37.75713 41.987804 46.09071 50.682934 55.907391 60.093586 64.685806 70.808456 78.20031 81.013191 84.528343 92.12558 97.53933 101.59302 106.32532 110.49352 115.22582 120.86862 126.25492 131.66867 136.74265 143.65938 146.49402 152.30528 155.79205 160.02272 164.52315 172.17622 175.01086 179.74316 185.38596 190.37476 194.01862 201.54298">profleincreaseswithpresentdayintronlength(</tspan><tspan
         id="tspan420"
         y="80.221947"
         x="204.60478 210.9082 213.67564 218.79599 224.44731 228.67799 235.10539">Figure2</tspan><tspan
         id="tspan422"
         y="80.221947"
         x="240.20776 245.43222 248.42776">a),</tspan><tspan
         id="tspan424"
         y="91.674118"
         x="0 2.9529552 8.7642193 14.177971 17.130926 21.361603 26.586061 30.229933 33.182888 38.994152 49.152508 52.796379 58.607643 63.8321 67.475975 75.174477 78.127434 83.938698 89.352448 94.084747 99.498497 104.2308 110.04207 115.45582 120.18812 125.99938 129.64325 132.59621 142.75172 145.90343 150.13411 154.86641 168.32034 177.28331 184.0789 195.02281 200.83408 205.95442 211.17889 214.82275 217.77571 222.50801 233.34688 238.57133 243.69168 248.42398">indicatingthat,independentlyfromMCSfxationage,</tspan><tspan
         id="tspan426"
         y="103.12628"
         x="0 7.7098632 13.123614 16.076571 20.307245 25.039545 29.270222 35.48941 39.720085 44.452385 47.405342 52.629803 56.273674 59.226627 63.958927 69.770195 74.10498 79.916245 82.869202 90.821358 95.553658 100.674 103.62696 107.96175 111.60561 118.43054 123.655 128.3873 132.03117 139.42302 144.15532 148.88762 157.20795 160.85182 166.66309 173.9319 179.34566 183.57632 188.30862 192.64342 197.37572 203.18698 207.41765 214.63725 219.36955 225.06914 234.0321 240.8277 246.74307">adirectrelationshipexistsbetweenthepresenceofMCSs</tspan><tspan
         id="tspan428"
         y="114.57845"
         x="0 5.2244592 11.035724 19.275604 22.228559 28.039824 31.683695 35.914371 40.646671 49.322868 52.275826 57.008125 62.819389 67.939735 71.583611 77.394875">andintronlength.</tspan><tspan
         id="tspan430"
         y="126.03061"
         x="11.962308 18.757891 21.710846 25.354717 31.165981 35.898281 41.709545 46.829895 58.56316 67.526138 74.321716 80.237091 90.480629 94.711304 99.443604 107.81978 113.23353 117.4642 120.41716 124.75195 129.48425 138.10271 143.32716 152.89967 161.27583 166.00813 170.34293 173.9868 182.54942 187.77388 201.59787 206.33017 215.37454 219.60522 224.33752 228.6723 231.62526 237.03902 242.85028 248.07474">AlthoughMCSscomprise,atmost,9%ofresidual</tspan><tspan
         id="tspan432"
         y="137.48277"
         x="0 3.0457082 8.9497261 12.68635 17.009779 21.834833 33.797142 36.84285 41.6679 47.571918 52.785019 56.521645 68.483955">intronlength(</tspan><tspan
         id="tspan434"
         y="137.48277"
         x="71.71611 78.112289 81.157997 86.371101 92.275116 96.598549 107.48473">Figure1</tspan><tspan
         id="tspan436"
         y="137.48277"
         x="112.81803 118.04154 121.37687 130.1638 133.90422 139.80823 150.69252 156.64481 161.76421 167.35779 172.17528 175.81819 181.75439 186.57945 191.00699 194.05269 204.53947 208.27988 214.1839 219.50111 229.30833 233.04874 238.95276 243.77782 246.82352">b),thehypothesisthattheir</tspan><tspan
         id="tspan438"
         y="148.93495"
         x="-0.00094646 5.4128046 9.6434813 14.375781 18.710567 23.442867 27.673544 32.793892 38.018353 41.662224 44.615177 49.347477 57.201202 61.933502 67.053848 71.786148 78.007233 81.651108 84.604057 92.980232 99.720917 102.67387 109.07478 114.48853 118.71921 121.67216 130.04834 135.2728 139.50348 142.45642 145.40938 152.558 156.78867 161.52097 165.85576 171.26952 176.00182 181.81308 186.14786 189.10081 194.32527 197.27823 204.035 207.18672 211.91902 218.15146 223.56522 227.79588 232.52818 236.86298 241.59528 247.40654">preservationovertimeisprimarilyresponsibleforpresent</tspan><tspan
         id="tspan440"
         y="160.38712"
         x="-0.00094646 5.4128046 10.637264 20.918659 23.871614 29.682878 33.326748 37.557426 42.289726 53.346272 57.681057 60.634014 65.167557 75.059959 78.012909 87.53241 91.867195 97.678459 102.90292 107.2377 110.88158 116.10603 121.9173 125.56117 128.51413 133.73859 137.38246 142.11476 152.72836 157.95282 168.20581 178.6377 182.86838 187.60068 193.41194 198.8257 201.77864 211.68903 216.42133 224.72841 229.46071 234.68517 239.01996 243.75226 247.98293">dayintronsizeissubstantiatedbyacoupleofobser-</tspan><tspan
         id="tspan442"
         y="171.83928"
         x="-0.00094646 5.1194019 10.343862 13.987732 16.940687 21.672987 27.484251 31.819038 38.209538 44.512959 47.465916 51.69659 56.03138 59.675251 66.102661 69.055618 74.866882 80.280632 85.012932 87.965889 96.036346 101.26081 105.49149 113.95094 119.56345 125.37472 130.10701 137.49887 147.05907 150.70293 159.19173 164.4162 172.85483 178.07928 181.03224 186.2567 190.59149 195.32379 204.4893 207.44226 216.96176 220.11346 225.33794 230.45828 235.19058 243.1541 247.8864">vations.First,indelsareknowntobebiasedinfavorof</tspan><tspan
         id="tspan444"
         y="183.29144"
         x="-0.00094646 5.5878997 10.495295 13.669722 18.544937 22.363903 25.53833 30.445724 36.432083 47.090172 50.207809 62.39632 67.669052 72.576447 76.982216 80.801186 85.70858 91.108131 95.513901 100.91346 104.73242 109.63982">deletionsinvertebrates</tspan><tspan
         id="tspan446"
         y="183.29144"
         x="120.30169 123.63039 128.56239 133.96384">[11]</tspan><tspan
         id="tspan448"
         y="183.29144"
         x="137.25279 146.27917 151.66454 157.67361 167.6512 171.50612 177.4584 188.55754 193.43277 201.9935 206.92549 211.29057 216.62009 221.4953 227.50438 231.92624 242.9809 247.91289">,buttheemergenceof</tspan><tspan
         id="tspan450"
         y="194.74361"
         x="-0.00094646 4.2297297 8.9620295 14.773294 19.108082 23.840382 28.071056 33.191406 37.923706 46.089764 50.424549 55.156849 60.38131 66.192574 70.924873 76.736137 80.966812 85.699112 92.804192 101.18036 104.13332 109.25366 115.06493 121.43365 126.84741 131.07808 135.81038 141.22414 145.95644 150.18712 153.83098 156.78394 161.51624 167.3275 172.55196 175.50491 178.45787 186.34662 190.57729 195.30959 201.12085 205.45564 209.09952 213.33018 218.55466 221.5076 230.05603 235.46979 240.20209 243.15504 247.88734">conservedsequencesmightproportionallyconstraindele-</tspan><tspan
         id="tspan452"
         y="206.25256"
         x="-0.00094646 3.6429245 6.5958796 11.328179 19.445021 22.596733 26.827408 31.55971 36.784168 42.595432 47.327732 53.138996 57.369675 60.322628 65.054932 71.715164 74.668121 82.770767 86.414635 92.225899 96.958199 101.29299 108.33939 111.29234 117.1036 120.74747 124.97815 129.71045 135.52171 142.1848 149.57664 155.38791 160.12021 164.35089 171.3812 175.02505 180.83632 185.56862 192.98131 198.20576 202.93806 207.16873 211.90103 220.27721 227.33685 233.14812 238.26846 243.00076 248.41452">tionfrequenciesinthoseintronswheretheybecomefxed.</tspan></text>
<g
       id="g454"><g
         clip-path="url(#clipPath458)"
         id="g456"><path
           id="path462"
           style="fill:none;stroke:#231f20;stroke-width:0.454;stroke-linecap:round;stroke-linejoin:round;stroke-miterlimit:10;stroke-dasharray:none;stroke-opacity:1"
           d="m 45.808,57.033 35.886,0" /></g></g><text
       id="text464"
       style="font-variant:normal;font-weight:normal;font-size:6.4756999px;font-family:AdvPS88D4;-inkscape-font-specification:AdvPS88D4;writing-mode:lr-tb;fill:#000000;fill-opacity:1;fill-rule:nonzero;stroke:none"
       transform="matrix(1,0,0,-1,57.7701,48.7559)"><tspan
         id="tspan466"
         y="0"
         x="0 4.6502004 7.8886976 10.783983 13.679269 16.574554 19.469839 23.174587 26.413086 30.389812 34.366539 36.523594 40.500324 45.92437 49.629116 53.605846 55.898891 59.875618 63.114117 66.009399">Correspondingauthor:</tspan></text>
<text
       id="text468"
       style="font-variant:normal;font-weight:normal;font-size:6.4756999px;font-family:AdvPS88D1;-inkscape-font-specification:AdvPS88D1;writing-mode:lr-tb;fill:#000000;fill-opacity:1;fill-rule:nonzero;stroke:none"
       transform="matrix(1,0,0,-1,127.50173,48.7559)"><tspan
         id="tspan470"
         y="0"
         x="0 4.3128161 7.5506663 10.652527 13.754387 16.992237 19.012655 21.033073 24.772142 30.030411 33.785671 35.942078 39.918156 43.622257 46.860107 49.961967 53.063828 56.301678 58.322098 60.342514 65.128059 68.702644 72.406746 74.226418 76.246834 80.222916 82.379326 84.12323 86.143646 88.636795 90.793198">Pozzoli,U.(upozzoli@bp.lnf.it).</tspan><tspan
         id="tspan472"
         y="8.5038891"
         x="-69.731636 -65.536674 -62.032673 -58.457439 -56.436375 -54.415306 -50.840073 -47.264839 -45.243774 -40.079403 -36.840904 -32.864178 -30.843111 -28.822046 -24.845318 -19.724981 -14.225818 -10.650584 -6.6738563 -4.6527905 0.79845381 4.3736877 7.9489217 11.524156">Availableonline6July2005</tspan></text>
<path
       id="path474"
       style="fill:#006bb6;fill-opacity:1;fill-rule:nonzero;stroke:none"
       d="m 45.808,768.189 520.044,0 0,-0.51 -520.044,0 0,0.51 z" /><path
       id="path476"
       style="fill:#006bb6;fill-opacity:1;fill-rule:nonzero;stroke:none"
       d="m 117.581,767.679 77.669,0 0,-11.452 -77.669,0 0,11.452 z" /><text
       id="text478"
       style="font-variant:normal;font-weight:normal;font-size:8.96630001px;font-family:AdvPSA35D;-inkscape-font-specification:AdvPSA35D;writing-mode:lr-tb;fill:#ffffff;fill-opacity:1;fill-rule:nonzero;stroke:none"
       transform="matrix(1,0,0,-1,119.5653,759.0613)"><tspan
         id="tspan480"
         y="0"
         x="0 7.0026803 12.507989 18.013296 22.962694 25.948473">Update</tspan></text>
<text
       id="text482"
       style="font-variant:normal;font-weight:normal;font-size:6.97380018px;font-family:AdvPSA35E;-inkscape-font-specification:AdvPSA35E;writing-mode:lr-tb;fill:#000000;fill-opacity:1;fill-rule:nonzero;stroke:none"
       transform="matrix(1,0,0,-1,213.222,759.0613)"><tspan
         id="tspan484"
         y="0"
         x="0 4.2826104 8.9278584 13.210469 18.657705 23.66559 30.445518 32.405853 38.779907 44.227142 48.077377 52.359989 56.210224 58.533195 60.49353 64.066902">TRENDSinGenetics</tspan></text>
<text
       id="text486"
       style="font-variant:normal;font-weight:normal;font-size:6.97380018px;font-family:AdvPSA35D;-inkscape-font-specification:AdvPSA35D;writing-mode:lr-tb;fill:#000000;fill-opacity:1;fill-rule:nonzero;stroke:none"
       transform="matrix(1,0,0,-1,287.71683,759.0613)"><tspan
         id="tspan488"
         y="0"
         x="0 4.6452484 8.9278584 10.888194 12.927333 16.777569 22.678797 28.126032 32.408642 34.36898 41.784916 46.430164 50.280399 54.563011 56.885983 60.736217 67.341103 71.623718 75.473953 80.338173 84.188408 88.038643 91.888878 -241.90857 -238.05833 -234.2081">Vol.21No.9September2005484</tspan></text>
<text
       id="text490"
       style="font-variant:normal;font-weight:normal;font-size:5.97770023px;font-family:AdvPSA35D;-inkscape-font-specification:AdvPSA35D;writing-mode:lr-tb;fill:#000066;fill-opacity:1;fill-rule:nonzero;stroke:none"
       transform="matrix(1,0,0,-1,45.8079,26.589)"><tspan
         id="tspan492"
         y="0"
         x="0 4.980022 9.9600439 14.940065 16.620398 19.609844 22.599293 24.279625 27.579912 31.250818 34.240265 37.540554 41.21146 42.891792 45.193802 48.494091 51.48354 53.474712 55.155041 58.144489 61.815395">www.sciencedirect.com</tspan></text>
</g></svg>